<svg id="Layer_1" data-name="Layer 1" xmlns="http://www.w3.org/2000/svg" viewBox="0 0 400 400"><defs><style>.cls-1{fill:#0086ff;}</style></defs><path class="cls-1" d="M200,380,40,290.22V109.78L200,20l160,89.78V290.22ZM50.55,284.06,200,367.93l149.45-83.87V115.94L200,32.07,50.55,115.94Z"/><path class="cls-1" d="M137.48,150.19l-9.23-1.49-11.31,10.11,23.64,11.91a59.17,59.17,0,0,1-3.13-19C137.45,151.24,137.46,150.72,137.48,150.19Z"/><polygon class="cls-1" points="174.18 255.88 184.2 255.88 179.11 240.87 174.18 255.88"/><polygon class="cls-1" points="100.42 144.21 95.17 147.84 112.74 156.69 122.69 147.8 100.42 144.21"/><polygon class="cls-1" points="304.83 147.84 302.21 146.02 299.58 144.21 277.31 147.8 287.26 156.69 304.83 147.84"/><path class="cls-1" d="M200,173.41a21.67,21.67,0,1,0-21.72-21.67A21.7,21.7,0,0,0,200,173.41Zm7.17-14c1.23-1.22,2.88-1.56,3.69-.75s.47,2.45-.75,3.67-2.87,1.56-3.68.75S206,160.64,207.17,159.42Zm-18.64-18.15a7.94,7.94,0,1,1-.25,11.46A8.14,8.14,0,0,1,188.53,141.27Z"/><path class="cls-1" d="M271.75,148.7l-9.23,1.49c0,.53,0,1.05,0,1.57a58.9,58.9,0,0,1-2.49,17c-.21.67-.41,1.34-.64,2l23.64-11.91Z"/><path class="cls-1" d="M250.24,239.43q-2.84-2.27-8.55-2.26H226.34v17.9h15.35a16.85,16.85,0,0,0,5-.66,10.58,10.58,0,0,0,3.57-1.86,7.49,7.49,0,0,0,2.15-2.92,10,10,0,0,0,.71-3.83A7.64,7.64,0,0,0,250.24,239.43Z"/><path class="cls-1" d="M200,42.14,59.34,121.07V278.93L200,357.86l140.66-78.93V121.07ZM257.33,161.3c.22-1.24.4-2.49.53-3.76a55.22,55.22,0,0,0,.31-5.78c0-1.77-.09-3.52-.26-5.25l12.43-2,2.3-.37,28-4.52,12.73,8.82-63.19,31.85a54.89,54.89,0,0,0,6.38-15.3C256.85,163.77,257.12,162.54,257.33,161.3ZM202.19,99.77A54.63,54.63,0,0,1,232.11,110V98.76l3.28-1.07s10.66,25,14.56,34.77c.18.45.34.88.49,1.27s.21.55.31.82c.24.64.41,1.14.51,1.44l.09.29c0,.05,0,.09,0,.14.2.62.37,1.21.52,1.76.06.21.12.41.17.62.17.63.31,1.21.43,1.72,0,.07,0,.15.05.22s.08.37.12.53c.21,1,.31,1.61.31,1.61l-13.94,2.25h0a39.65,39.65,0,0,0-36.86-32.79ZM200,116.43a35.31,35.31,0,1,1-35.39,35.31A35.39,35.39,0,0,1,200,116.43Zm-53,26.45s.09-.6.31-1.61c0-.16.08-.34.12-.53a1.6,1.6,0,0,1,0-.21c.11-.51.26-1.09.43-1.74.05-.2.11-.4.16-.61.16-.55.33-1.14.53-1.76a.74.74,0,0,1,0-.14l.09-.29c.1-.3.27-.8.51-1.44.09-.27.2-.54.3-.81s.31-.82.5-1.28c3.9-9.79,14.56-34.77,14.56-34.77l3.28,1.07V110a54.65,54.65,0,0,1,29.93-10.25v12.57A39.65,39.65,0,0,0,161,145.13L147,142.88Zm-.58,4.33,14,2.26c0,.78-.07,1.55-.07,2.33a39.63,39.63,0,0,0,79.26,0c0-.78,0-1.55-.07-2.33l14-2.26c.13,1.5.21,3,.21,4.55,0,28.75-24.08,52.05-53.79,52.05s-53.79-23.3-53.79-52.05C146.21,150.23,146.29,148.71,146.42,147.21Zm-47-7.6,28,4.52,2.3.37,12.43,2c-.17,1.73-.26,3.48-.26,5.25a54.78,54.78,0,0,0,8,28.52L86.64,148.43Zm24,138.11L119,268l-3.57-9.48L111.88,268l-4.45,9.77H97.51L75.72,228.48H86.65L100,260.27l3.09,7.68,2.44-7.68,4.92-11.6-8.87-20.19h10.29l3.63,9.61,3.38-9.61h10.3l-8.88,20.19,5,11.85,3,7.43,2.33-7.56,13.46-31.91h10.92l-21.79,49.24Zm74.24,17.88-10.27-30.32h-16.3l-10,30.32h-11.4L173.41,229h11.21L209,295.6Zm65.16,0-21-31.87h-.28l-15.16,0v31.9h-10V228.48h25.1a36.34,36.34,0,0,1,9.86,1.18,19.12,19.12,0,0,1,6.91,3.42,13.7,13.7,0,0,1,4.09,5.45,18.62,18.62,0,0,1,1.34,7.27A20.18,20.18,0,0,1,263,251a15.34,15.34,0,0,1-5.49,8.25,19.16,19.16,0,0,1-4.9,2.7l23.11,33.63Zm59.77-41.89a15,15,0,0,1-4.05,5.78,19.26,19.26,0,0,1-6.9,3.81,31.5,31.5,0,0,1-9.86,1.38l-16.07,0V283.1h-10V228.48h26a35,35,0,0,1,9.85,1.23,18.91,18.91,0,0,1,6.92,3.54,14.25,14.25,0,0,1,4.09,5.66,20.08,20.08,0,0,1,1.34,7.52A19.4,19.4,0,0,1,322.58,253.71Z"/><path class="cls-1" d="M310.5,239.61c-1.9-1.62-4.75-2.44-8.54-2.44H285.7V256H302a16.25,16.25,0,0,0,5-.68,9.87,9.87,0,0,0,3.56-1.92,7.65,7.65,0,0,0,2.15-3,10.5,10.5,0,0,0,.71-4A8.49,8.49,0,0,0,310.5,239.61Z"/></svg>