<svg id="Layer_1" data-name="Layer 1" xmlns="http://www.w3.org/2000/svg" viewBox="0 0 400 400"><defs><style>.cls-1{fill:#29296a;}</style></defs><path class="cls-1" d="M256.69,140.11a4.2,4.2,0,1,0,4.21,4.2A4.2,4.2,0,0,0,256.69,140.11Z"/><path class="cls-1" d="M293.78,152.42l-25-5.57-2.35,20.27,17.81,4A122.38,122.38,0,0,0,293.78,152.42Z"/><path class="cls-1" d="M143.43,148.51a4.2,4.2,0,1,0-4.22-4.2A4.21,4.21,0,0,0,143.43,148.51Z"/><path class="cls-1" d="M120.11,177.72q3.9,5.66,8.52,11.28c3.05,3.71,6,7,8.68,9.83l-2.82-24.38Z"/><path class="cls-1" d="M131.3,146.85l-25,5.57a122.3,122.3,0,0,0,9.49,18.74l17.82-4Z"/><path class="cls-1" d="M280,177.72l-14.39-3.27-2.82,24.38c2.68-2.82,5.64-6.12,8.69-9.83S277.41,181.49,280,177.72Z"/><path class="cls-1" d="M200,40.46,59.34,119.39V277.26L200,356.19l140.66-78.93V119.39Zm-13.47,138a21.1,21.1,0,0,0,26.25,0v9.34H186.53Zm2-26.61a7.73,7.73,0,1,1-.24,11.15A7.93,7.93,0,0,1,188.49,151.85Zm18.15,17.66c1.19-1.18,2.79-1.51,3.58-.72s.46,2.38-.73,3.57-2.79,1.52-3.58.73S205.44,170.7,206.64,169.51Zm-7-28.64a21,21,0,0,0-13.12,4.58v-6.74h26.25v6.74A21,21,0,0,0,199.65,140.87Zm-21.13-5.26v-8.53h42.27v8.53Zm4.9,39.83V187.8H163.08V138.71h20.34v9.76a21,21,0,0,0,0,27ZM212.58,105h-38.4l25.1-26.21ZM205.4,84l21.32,21H216.06Zm9.71,24.1h12l-8.83,10.07H172.94l-9.68-10.07Zm16.1,0h9.14L234.93,114a.24.24,0,0,0-.06.08l-3.8,4.12h-8.68Zm8.48,13.17V124H159.62v-2.71Zm-64.28,5.81v8.53H155v-8.53Zm40.48,48.36a21,21,0,0,0,0-27v-9.76h19.42V187.8H215.89Zm8-39.83v-8.53h20.4v8.53Zm17.32-17.41a1.55,1.55,0,0,0-.31,0h-5.59l9.26-10.07h6.77ZM222.08,88.74a3.11,3.11,0,0,1,5.61,1.83,3,3,0,0,1-.26,1.23L250.57,105H231.15L204.41,78.67ZM199.65,62.2a2.37,2.37,0,0,1,1.06,4.49v8.6l-.18-.11a1.76,1.76,0,0,0-1.75,0l-.18.11v-8.6a2.35,2.35,0,0,1-1.33-2.12A2.38,2.38,0,0,1,199.65,62.2Zm-28,28.37a3.11,3.11,0,0,1,5.61-1.83l18.19-10.37L169.92,105H148.73l23.14-13.2A3.14,3.14,0,0,1,171.62,90.57ZM159,108.1l9.68,10.07H158.31l-.22,0L148,108.1Zm-32.6,147.47a25.25,25.25,0,0,1-1.81,9.68,21,21,0,0,1-5.31,7.57,24,24,0,0,1-8.43,4.83,34.57,34.57,0,0,1-11.13,1.67,34.59,34.59,0,0,1-11.14-1.67,24,24,0,0,1-8.43-4.83,21,21,0,0,1-5.31-7.57A25.25,25.25,0,0,1,73,255.57v-5.18H86.68v4a16.51,16.51,0,0,0,.84,5.5,10,10,0,0,0,2.38,3.84,10.39,10.39,0,0,0,3.95,2.38,20.35,20.35,0,0,0,11.64,0,10.44,10.44,0,0,0,4-2.38,9.92,9.92,0,0,0,2.38-3.84,16.51,16.51,0,0,0,.84-5.5V224.89h13.69ZM96.2,147.39a.69.69,0,0,1,.51-.88l38-8.47a10.8,10.8,0,0,1,18,.67H160V187.8h-11.7V153.92a10.79,10.79,0,0,1-4.84,1.15,10.56,10.56,0,0,1-3.3-.52l6.83,59a2.25,2.25,0,0,1-3.3,2.2C139.67,212.41,107.8,184.64,96.2,147.39Zm92,127.46a25.25,25.25,0,0,1-1.81,9.68,21,21,0,0,1-5.31,7.57,23.88,23.88,0,0,1-8.43,4.83,37.92,37.92,0,0,1-22.26,0A23.93,23.93,0,0,1,142,292.1a21.07,21.07,0,0,1-5.31-7.57,25.25,25.25,0,0,1-1.81-9.68v-50h13.69v48.74a16.51,16.51,0,0,0,.84,5.5,9.92,9.92,0,0,0,2.38,3.84,10.3,10.3,0,0,0,3.95,2.38,20.12,20.12,0,0,0,11.64,0,10.43,10.43,0,0,0,4-2.38,10,10,0,0,0,2.37-3.84,16.51,16.51,0,0,0,.84-5.5V224.89h13.69Zm-21.52-78.08h13.83l1.24,4.31H168.93a1.53,1.53,0,0,0-.2-.77Zm21.14-1.55v5.87h-2.91a1.63,1.63,0,0,0,0-.43l-1.69-5.86a1.55,1.55,0,0,0-1.49-1.12H164a1.55,1.55,0,0,0-1.35.77,1.54,1.54,0,0,0,0,1.55l2.93,5.1h-5.82l-5.86-10.19H245.4l-5.86,10.19h-5.82l2.93-5.1a1.55,1.55,0,0,0-1.35-2.32H217.62a1.55,1.55,0,0,0-1.49,1.12l-1.69,5.87a1.65,1.65,0,0,0-.06.43h-2.9v-5.87a1.55,1.55,0,0,0-1.55-1.55H189.38A1.54,1.54,0,0,0,187.83,195.22Zm44.79,1.55-2,3.55a1.53,1.53,0,0,0-.2.77H217.55l1.24-4.32Zm-41.69,0h17.44v4.32H190.93Zm61.59,99.74H238.84V261.57l-28-20.62v55.56H197.16V224.89h12.53l29.15,21.57V224.89h13.68Zm1.89-80.69a2.25,2.25,0,0,1-1.24-2.31l6.82-59a10.6,10.6,0,0,1-3.3.52,10.76,10.76,0,0,1-5.65-1.6V187.8H238.42V138.71h9.06a10.81,10.81,0,0,1,18-.67l38,8.47a.69.69,0,0,1,.51.88c-11.33,36.37-42,63.71-47.14,68.11A2.21,2.21,0,0,1,254.41,215.82Zm64.89,47a25.85,25.85,0,0,1-6.31,8.81,28.81,28.81,0,0,1-9.69,5.71,38.76,38.76,0,0,1-24.7,0,29,29,0,0,1-9.68-5.71,26,26,0,0,1-6.31-8.81,27.74,27.74,0,0,1-2.24-11.21,27.29,27.29,0,0,1,2.25-11.13,25.41,25.41,0,0,1,6.31-8.72,28.87,28.87,0,0,1,9.69-5.61,39.76,39.76,0,0,1,24.66,0,28.55,28.55,0,0,1,9.7,5.61,25.44,25.44,0,0,1,6.32,8.72,27.29,27.29,0,0,1,2.25,11.13A27.75,27.75,0,0,1,319.3,262.85Z"/><path class="cls-1" d="M303.13,240.72a15.64,15.64,0,0,0-5.31-2.94,23.18,23.18,0,0,0-13.73,0,15.93,15.93,0,0,0-5.33,2.94,13.3,13.3,0,0,0-3.45,4.64,15.11,15.11,0,0,0-1.25,6.28,15.36,15.36,0,0,0,1.25,6.32,13.83,13.83,0,0,0,3.47,4.74,16.06,16.06,0,0,0,5.34,3.07,22,22,0,0,0,13.68,0,16,16,0,0,0,5.31-3.06A14.33,14.33,0,0,0,306.6,258a15.16,15.16,0,0,0,1.26-6.31,14.87,14.87,0,0,0-1.26-6.27A13.55,13.55,0,0,0,303.13,240.72Z"/><path class="cls-1" d="M200,380,40,290.22V109.78L200,20l160,89.78V290.22ZM50.55,284.06,200,367.93l149.45-83.87V115.94L200,32.07,50.55,115.94Z"/></svg>