<?xml version="1.0" encoding="utf-8"?>
<!DOCTYPE svg PUBLIC "-//W3C//DTD SVG 20010904//EN" "http://www.w3.org/TR/2001/REC-SVG-20010904/DTD/svg10.dtd">
<svg version="1.0" xmlns="http://www.w3.org/2000/svg" width="1398px" height="723px" viewBox="0 0 1398 723" preserveAspectRatio="xMidYMid meet">
 <g fill="#28296b">
  <path d="M716.1 721.2 c-4.9 -2.4 -7.6 -6.5 -7.5 -11.2 0.2 -5 2.5 -8.6 6.9 -10.7 l3.5 -1.7 0 -29.3 0 -29.3 -125.5 0 -125.5 0 0.2 21.6 0.3 21.6 3.9 1.3 c7.7 2.7 12.6 9.6 12.6 17.9 0 8.2 -3.9 14.2 -11.5 17.7 -5.3 2.5 -10.2 2.4 -15.5 -0.3 -6.7 -3.5 -10.3 -8.6 -10.8 -15.6 -0.7 -9.2 4.2 -16.8 12.5 -19.7 l3.8 -1.3 0.3 -23.6 0.2 -23.6 127.5 0 127.5 0 0 -10.5 0 -10.5 -241.3 0 -241.2 0 -1.4 3.1 c-2.7 6.1 -11.2 8.7 -17.1 5.3 -6.3 -3.8 -8 -12.8 -3.5 -18.3 3 -3.5 8.3 -5.5 12.5 -4.6 3.1 0.7 9 6.6 9 9 0 1.3 30 1.5 241.5 1.5 l241.5 0 0 -9 0 -9 45 0 45 0 0 -13 0 -13 -3 0 -3 0 0 -112.7 0 -112.6 2.3 2 c1.2 1.1 35.4 30.9 76 66.2 l73.7 64.2 0 13.6 0 13.5 -7.2 -6.4 c-23.3 -20.6 -78.7 -68.8 -79.2 -68.8 -0.3 0 -0.6 31.7 -0.6 70.5 l0 70.5 -4.5 0 -4.5 0 0 18.5 0 18.5 81 0 81 0 0 9.5 0 9.5 118 0 118 0 0 30 0 30 3.5 1.4 c4.1 1.7 7.5 6.8 7.5 11.2 0 3.7 -3.6 9.4 -7 11.1 -7.8 4 -18 -2.5 -18 -11.4 0 -4.1 3.5 -9.2 7.5 -10.9 l3.5 -1.4 0 -28 0 -28 -116.5 0 -116.5 0 0 14.4 0 14.4 3.6 1.2 c18.4 6.1 17.5 31.9 -1.3 36.9 -8.1 2.2 -18 -2.5 -21.7 -10.3 -2 -4.1 -2.1 -11.5 -0.2 -15.9 1.7 -4.1 7.4 -9.1 12 -10.7 l3.6 -1.2 0 -14.4 0 -14.4 -81 0 -81 0 0 -9.5 0 -9.5 -11 0 -11 0 0 -5.5 c0 -5.4 0 -5.5 -3 -5.5 l-3 0 0 21.5 0 21.5 -52 0 -52 0 0 29.4 0 29.4 3.1 1.2 c6.5 2.7 9.1 12.9 4.7 18.5 -2 2.6 -7.3 5.5 -10 5.5 -0.7 0 -2.8 -0.8 -4.7 -1.8z m8.4 -3.2 c2.9 -1.1 5.8 -6.9 4.8 -9.7 -1.3 -3.6 -4.6 -6.3 -7.9 -6.3 -4.6 0 -6.3 0.9 -8 4.2 -2 3.8 -1 8.2 2.3 10.8 2.9 2.2 4.9 2.5 8.8 1z m-249.7 -3.7 c4 -3 6.5 -8 6.5 -12.8 0 -8.1 -5.8 -14.5 -14 -15.2 -9.4 -0.8 -16.3 5.6 -16.3 15.2 0 9.6 6.9 16 16.3 15.2 2.7 -0.2 6 -1.3 7.5 -2.4z m786.7 -13.8 c7.9 -7.8 -3.7 -19.6 -11.9 -12 -5.6 5.2 -1.9 14.5 5.9 14.5 2.5 0 4.4 -0.8 6 -2.5z m-235.8 -12.5 c10.7 -4.8 11.4 -20.7 1.1 -27 -9.8 -5.9 -22.9 1.3 -23.1 12.7 -0.1 6.6 2.6 11.2 8.3 14.1 5.4 2.7 8.2 2.7 13.7 0.2z m-202.7 -72.5 l0 -19.5 -5 0 -5 0 0 9 0 9 -45 0 -45 0 0 10.5 0 10.5 50 0 50 0 0 -19.5z m194 -1 l0 -7.5 -79 0 -79 0 0 7.5 0 7.5 79 0 79 0 0 -7.5z m-788.5 4.9 c1.9 -0.8 4.5 -5.5 4.5 -8.4 0 -1.2 -1.3 -3.5 -2.9 -5.1 -3.5 -3.5 -7.7 -3.8 -11.5 -0.8 -3.4 2.7 -3.7 9.1 -0.4 12.6 2.1 2.3 6.7 3 10.3 1.7z m580.5 -16.4 l0 -7 -43 0 -43 0 0 7 0 7 43 0 43 0 0 -7z m46 -18.5 l0 -18.5 -4.5 0 -4.5 0 0 15 0 15 -4.5 0 c-4.5 0 -4.5 0 -4.5 3.5 l0 3.5 9 0 9 0 0 -18.5z m-32 -5.5 l0 -13 -5 0 -5 0 0 13 0 13 5 0 5 0 0 -13z m10 0 l0 -13 -3 0 -3 0 0 13 0 13 3 0 3 0 0 -13z m9 0 l0 -13 -2.5 0 -2.5 0 0 13 0 13 2.5 0 2.5 0 0 -13z"/>
  <path d="M462.5 708.8 c-4.1 -2.2 -5.6 -6.7 -3.9 -11.3 1.8 -4.6 10.9 -5.4 13.9 -1.2 5 7.1 -2.5 16.6 -10 12.5z"/>
  <path d="M1253.1 698.3 c-2.3 -1.6 -2.8 -5.2 -0.9 -7.1 3.5 -3.5 9.6 0.9 7.6 5.3 -1.3 3 -4.1 3.7 -6.7 1.8z"/>
  <path d="M1015.5 681.8 c-5.2 -2.8 -6.2 -9.2 -2 -13.3 5.1 -5.2 13.5 -1.5 13.5 5.9 0 2.6 -0.7 4 -3.1 6 -3.3 2.8 -5.3 3.1 -8.4 1.4z"/>
  <path d="M115.9 628.7 c-6.2 -3.3 -10.4 -10.2 -10.3 -17.1 0.1 -2.8 0.8 -6.5 1.7 -8.2 2.3 -4.5 8.1 -9.2 12.2 -10 l3.5 -0.6 0 -37.9 0 -37.9 39.7 0 39.7 0 5.1 5 5.1 5.1 3.7 -1.6 c2 -0.8 3.7 -1.9 3.7 -2.3 0 -0.4 -4.8 -5.6 -10.8 -11.5 l-10.7 -10.7 -83.3 0 -83.2 0 -0.9 2.3 c-1.5 3.9 -5.7 6.9 -10.3 7.4 -11.5 1.1 -17.9 -12.4 -9.7 -20.6 6 -6 15.3 -4.5 19.4 3.1 l2 3.8 80.3 0 c44.1 0 80.2 -0.3 80.2 -0.8 0 -0.4 -7.1 -7.8 -15.8 -16.5 l-15.7 -15.7 -30.5 0 -30.6 0 -1.1 3 c-1.6 4.4 -6.8 7.2 -12.2 6.7 -12.5 -1.3 -15 -18.5 -3.4 -23.3 6.2 -2.7 12.8 -0.1 15.8 6.2 l1.6 3.4 27.4 0 c15.1 0 27.5 -0.3 27.5 -0.8 0 -0.4 -5.7 -6.5 -12.8 -13.5 l-12.7 -12.7 -26.8 0 -26.7 0 0 -15 0 -15 -18.9 0 -18.9 0 -0.7 2.9 c-1 4.8 -5.9 10.7 -11 13.1 -16.6 8 -33.6 -11.1 -24.2 -27.2 2 -3.4 4 -5.3 7.9 -7.2 2.8 -1.4 6.3 -2.6 7.7 -2.6 8.3 0 17.1 6.4 19.1 13.9 l1.1 4.1 18.9 0 19 0 0 -40.8 0 -40.7 -3.3 -1.8 c-11.2 -6 -7.3 -22.7 5.3 -23.1 6.3 -0.1 13 6.3 13 12.5 0 3.6 -3.9 9.1 -7.7 10.9 l-3.3 1.5 0 40.8 0 40.7 11.3 0 11.2 0 14.5 14.5 14.5 14.5 27 0 27 0 38.2 38.2 38.1 38.1 5.9 -2.5 c5.7 -2.5 5.9 -2.5 13.8 -1.1 8.5 1.5 19.7 1.2 28.2 -0.8 7.3 -1.7 22.1 -9.2 28.2 -14.2 7.7 -6.5 13.7 -14.1 18.1 -23.2 6.9 -14.4 7 -15.4 7 -79.4 l0 -57.1 22 0 22 0 0 51 0 51 10.6 0 10.7 0 -0.6 11.3 c-1.7 33 -15.3 63.3 -39.2 87.3 -25.8 25.9 -58.5 39.6 -94.5 39.7 -32.9 0.1 -61.7 -10.1 -86.6 -30.7 l-6.2 -5 3.1 -1.3 3.1 -1.4 -3.9 -3.9 -3.9 -4 -36.8 0 -36.8 0 0 35.9 0 35.9 2.8 0.5 c4.4 0.9 9.4 4.9 11.9 9.6 8.6 16.4 -9.4 34.4 -25.8 25.8z m16.9 -3.7 c4.5 -2.8 7.2 -7.6 7.2 -13 0 -6.3 -2.7 -11 -8.1 -13.8 -7.4 -3.9 -15 -2 -20.3 5.1 -2.8 3.8 -2.8 12.5 0 16.4 5.3 7.2 14.4 9.4 21.2 5.3z m101 -107.1 l7.3 -3.2 -6.8 -6.9 -6.7 -6.8 -12.1 0 -12 0 10.5 10.5 c5.8 5.8 10.9 10.3 11.5 10.1 0.5 -0.2 4.3 -1.9 8.3 -3.7z m13.8 -5.9 c2.8 -1.1 2.7 -1.2 -20.6 -24.5 l-23.5 -23.5 -18.5 0 -18.5 0 16.5 16.5 16.5 16.5 14.5 0 14.5 0 8 8 c4.4 4.4 8 8 8.2 8 0.1 0 1.4 -0.5 2.9 -1z m9.4 -4 c1.2 -0.8 -6.1 -8.5 -35.5 -38 l-37 -37 -24.5 0 -24.5 0 13.5 13.5 13.5 13.5 21.5 0 21.5 0 24.5 24.5 c13.5 13.5 24.7 24.5 25 24.5 0.3 0 1.2 -0.5 2 -1z m-231.5 -3.5 c5.2 -5.1 1.6 -14.5 -5.5 -14.5 -4.3 0 -9 4.7 -9 9 0 4.4 3.9 8 8.5 8 2.5 0 4.4 -0.8 6 -2.5z m69 -37 c5.6 -5.5 1.2 -14.5 -7.1 -14.5 -3.7 0 -7.4 4.2 -7.4 8.5 0 7.6 9.2 11.4 14.5 6z m19 -51.5 l-13 -13 -9.7 0 -9.8 0 0 13 0 13 22.7 0 22.8 0 -13 -13z m-86.9 -0.6 c4.9 -2.3 7.7 -6.8 8.1 -12.8 1.3 -16.2 -18.2 -22.5 -28.1 -9.2 -2.9 3.8 -2.9 12.4 0 16.3 5.1 6.9 12.8 9.1 20 5.7z m59.2 -104.1 c2.7 -3 2.8 -7.2 0.2 -10.6 -5.2 -6.6 -14.9 -3.1 -15 5.4 0 7.9 9.3 11.2 14.8 5.2z"/>
  <path d="M120.2 618.4 c-5.2 -3.6 -4.8 -11 0.9 -13.9 3.9 -2.1 5.3 -1.9 8.8 1.1 8 6.7 -1.2 18.8 -9.7 12.8z"/>
  <path d="M17.2 502.4 c-3.9 -2.7 -2.3 -8.4 2.4 -8.4 2.1 0 5.4 3.3 5.4 5.2 0 1 -3.8 4.8 -4.8 4.8 -0.4 0 -1.8 -0.7 -3 -1.6z"/>
  <path d="M14.4 407.6 c-5.6 -4.7 -2 -14.6 5.2 -14.6 3.4 0 8.4 5.1 8.4 8.5 0 3.4 -5 8.5 -8.4 8.5 -1.4 0 -3.7 -1.1 -5.2 -2.4z"/>
  <path d="M604.5 567.5 c-30 -5.3 -58 -20.4 -78.5 -42.2 -17.8 -19 -29.1 -40.8 -35.3 -67.8 -2 -8.7 -2.1 -12.2 -2.4 -99.2 l-0.4 -90.1 25.3 11 c13.9 6 28.1 12.1 31.5 13.5 l6.2 2.6 0.4 74.6 c0.3 82.2 0 78.1 6.8 92.9 9.7 21.4 30.4 38 53.3 42.6 l6.1 1.3 0.3 13.8 0.3 13.8 12.2 -0.6 c22.2 -1.1 41.7 -8 58.6 -20.8 l8.1 -6.1 11.8 10.8 c6.4 5.9 12.3 11.3 13.1 11.9 1.1 1.1 0.1 2.3 -5.5 7 -17.7 14.6 -35.5 23.5 -57.8 29.1 -8.5 2.2 -13 2.6 -28.1 3 -12.6 0.2 -20.4 -0.1 -26 -1.1z"/>
  <path d="M1020.3 523.8 l-47.3 -41.3 0 -14 0 -14.1 -74.9 -65.2 c-41.2 -35.9 -75.4 -65.9 -76 -66.6 -0.8 -0.9 -1.1 -9.9 -0.9 -29.9 l0.3 -28.6 90.5 79.1 90.5 79.1 0.3 -65.5 0.2 -65.6 2.5 -0.6 2.5 -0.6 0 -39.5 0 -39.5 -31.5 0 -31.5 0 0 -15 0 -15 -35.5 0 -35.5 0 0 -30.3 0 -30.3 -3 -1.1 c-6 -2.3 -8.8 -11.4 -5.3 -17.3 7.1 -12.1 26.7 -3.8 22.3 9.5 -1.2 3.6 -6.1 8.5 -8.6 8.5 -1.2 0 -1.4 4.5 -1.4 28.5 l0 28.5 33.5 0 33.5 0 0 -75.7 0 -75.8 -3.3 -1.5 c-3.8 -1.8 -7.7 -7.3 -7.7 -10.9 0 -3.3 3.2 -8.5 6.5 -10.7 1.4 -0.9 4.3 -1.7 6.4 -1.7 12.6 0 16.7 16.9 5.4 23 l-3.3 1.8 0 75.7 0 75.8 31.5 0 31.5 0 0 15 0 15 6 0 6 0 0 37.5 c0 20.6 0.3 37.5 0.8 37.5 0.4 0 4 -1.4 8 -3.2 l7.2 -3.2 0 -53.8 0 -53.8 -14 0 -14 0 0 -24 c0 -23.5 0 -24 -2 -24 -3.2 0 -7.4 -2.5 -10.8 -6.4 -13.4 -15.3 3.8 -38.2 22.3 -29.7 14.2 6.4 15.2 25.7 1.7 33.8 -2 1.3 -4.5 2.3 -5.4 2.3 -1.7 0 -1.8 1.7 -1.8 22 l0 22 14 0 14 0 0 55 0 54.9 4.3 -1.8 4.2 -1.8 0.3 -40.6 0.2 -40.7 95 0 94.9 0 1.6 -2.9 c2.4 -4.7 6.2 -7.1 11.1 -7.1 7.8 0 13.9 7.9 12 15.4 -0.9 3.5 -6 8.2 -9.7 9 -4.8 0.9 -11.1 -2.3 -13.3 -6.8 l-1.7 -3.6 -92.9 0 -93 0 0 37.5 c0 20.6 0.2 37.5 0.4 37.5 0.2 0 2.5 -0.9 5.1 -2.1 2.5 -1.1 4.9 -1.9 5.1 -1.6 0.2 0.2 0.3 67.9 0.2 150.5 l-0.3 150.2 -47.2 -41.2z m-3.6 -238 l3.3 -1.2 0 -36.8 0 -36.8 -4 0 -4 0 0 38 c0 20.9 0.3 38 0.7 38 0.4 0 2.2 -0.5 4 -1.2z m-8.7 -91.8 l0 -13 -29.5 0 -29.5 0 0 13 0 13 29.5 0 29.5 0 0 -13z m252.9 3.4 c3.8 -3.1 4.1 -7.8 1 -11.8 -1.6 -2.1 -2.9 -2.6 -6.4 -2.6 -3.5 0 -4.8 0.5 -6.4 2.6 -3 3.8 -2.7 8 0.8 11.5 3.6 3.6 7 3.7 11 0.3z m-378.8 -83.3 c5.7 -5.7 2.3 -14.1 -5.7 -14.1 -5.1 0 -8.4 3.1 -8.4 8 0 8.2 8.4 11.8 14.1 6.1z m139.8 0.2 c4.3 -3.3 7.1 -8.2 7.1 -12.7 0 -18.7 -26.6 -21.6 -30.6 -3.3 -1.4 6.7 2.6 14.4 9.1 17.3 3.9 1.8 11 1.2 14.4 -1.3z m-69.1 -95.6 c1.4 -1.3 2.2 -3.2 2.2 -5.3 0 -4.6 -0.9 -6.3 -4.2 -8 -8.3 -4.3 -16.5 5.6 -10.8 12.9 3.3 4.1 8.5 4.3 12.8 0.4z"/>
  <path d="M1010.5 109.1 c-2.9 -1.2 -4.4 -3.3 -5.1 -6.9 -1.2 -6.1 7.8 -11.7 12.7 -7.9 2.1 1.6 3.9 5.1 3.9 7.6 0 4.7 -7 9.1 -11.5 7.2z"/>
  <path d="M1234 563.4 c-22.1 -4.2 -32.1 -7.4 -47.3 -15.1 -11.2 -5.7 -22 -13 -31.4 -21.1 -8 -6.9 -20.7 -22.4 -27 -32.9 -4.9 -8.3 -13.8 -27.2 -13.1 -27.8 1.1 -1 14.4 -3.2 14.6 -2.5 0.2 0.5 2.3 5 4.7 10 7.9 16.1 18.4 30.1 31.3 41.4 8.1 7.1 22.7 17 23.9 16.3 0.5 -0.3 6.7 -9.6 13.7 -20.5 l12.8 -20 5.9 2.4 c9.5 3.9 18.5 5.5 29.9 5.5 41.8 0.1 74.9 -29.2 80.2 -70.8 3 -23.5 -5.5 -48.4 -22.3 -65.5 l-6.8 -6.9 11.1 -17.2 c6.1 -9.5 11.4 -17.6 11.8 -18 1.2 -1.3 15.5 12.8 22.3 21.8 7 9.5 13.4 21.8 17.2 33.5 1.5 4.7 2.9 8.7 3.1 8.8 0.1 0.2 5.5 -0.8 12 -2.2 6.4 -1.5 11.8 -2.5 12 -2.3 0.3 0.2 1.2 4 2.1 8.3 1.3 5.9 1.7 13.1 1.7 28.9 0 18 -0.3 22.5 -2.2 31.1 -6.2 28.7 -17.6 50.3 -37.1 70.6 -20.3 21.2 -42.6 33.9 -72.6 41.5 -8.6 2.1 -12.7 2.5 -29 2.8 -10.4 0.2 -20.1 0.1 -21.5 -0.1z"/>
  <path d="M636 506.6 c0 -8.5 0 -8.6 2.8 -9.1 22.6 -4.8 40.1 -18.4 49.7 -38.7 6.6 -13.8 6.5 -12.3 6.5 -106 l0 -84.8 2.5 0 2.5 0 0 -33.5 0 -33.5 -50 0 -50 0 0 -65.4 0 -65.4 -3.1 -0.7 c-4.1 -0.9 -9.8 -6.1 -12 -11 -7.3 -15.9 10.4 -32.5 26.2 -24.5 4.8 2.5 9.5 8.8 10.4 13.9 1.5 8.9 -4.8 19.1 -13.2 21.4 l-4.3 1.1 0 63.3 0 63.3 50 0 50 0 0 35.5 0 35.5 4.5 0 4.5 0 0 -20.5 0 -20.5 9.5 0 9.5 0 0 -21.5 0 -21.5 29.5 0 29.5 0 0 -30.7 0 -30.8 -3.3 -1.5 c-8.3 -3.9 -9.9 -13.7 -3.3 -19.7 8.1 -7.4 20.6 -2.1 20.6 8.7 0 4.3 -2.7 8.5 -6.7 10.7 l-3.3 1.8 0 30.7 0 30.8 15.5 0 15.5 0 0 -22.4 c0 -21.9 -0.1 -22.5 -2.1 -23.1 -3.1 -1 -5.1 -6.6 -3.8 -10.4 1.2 -3.3 5.3 -6.1 8.9 -6.1 1.2 0 3.5 1.3 5.1 2.9 4.1 4.2 4 8.4 -0.6 12.7 l-3.5 3.3 0 23.5 0 23.6 -17.5 0 -17.5 0 0 10.5 0 10.5 26.3 0 26.2 0 1.4 -3.1 c2.6 -6 10.8 -8.6 17 -5.5 4 2.1 6.1 5.9 6.1 11 0 8.1 -7.5 13.7 -15.4 11.5 -3.6 -1 -8.6 -6 -8.6 -8.5 0 -1.2 -4.2 -1.4 -26.5 -1.4 l-26.5 0 0 8.5 0 8.5 -23 0 -23 0 0 19 0 19 2.5 0 2.6 0 -0.4 91.3 c-0.3 89.7 -0.3 91.3 -2.4 99.3 -3.3 12.1 -6.1 20 -10.5 28.8 -4.6 9.1 -12.8 21.8 -13.9 21.4 -0.4 -0.2 -7.5 -6.5 -15.8 -14.1 l-15.1 -13.8 -8.8 8.8 c-5.5 5.5 -11.8 10.6 -16.8 13.5 -7.9 4.7 -22.1 10 -30.1 11.3 l-4.3 0.7 0 -8.6z m96 -257.6 l0 -19 -8 0 -8 0 0 19 0 19 8 0 8 0 0 -19z m13 0 l0 -19 -4.5 0 -4.5 0 0 19 0 19 4.5 0 4.5 0 0 -19z m0 -31 l0 -9 23 0 23 0 0 -10.5 0 -10.5 -27.5 0 -27.5 0 0 19.5 0 19.5 4.5 0 4.5 0 0 -9z m46 2 l0 -7 -21 0 -21 0 0 7 0 7 21 0 21 0 0 -7z m75.1 -2.6 c4.4 -4 2.6 -12.2 -3.1 -14.2 -10.7 -3.8 -16.6 12 -6 16.1 2.3 0.9 7.1 -0.1 9.1 -1.9z m-34.3 -82.6 c0.7 -0.7 1.2 -2.4 1.2 -3.8 0 -3.1 -1.7 -5 -4.4 -5 -2.5 0 -5.6 2.8 -5.6 5.1 0 4 6 6.5 8.8 3.7z m-33 -19 c5.3 -5 1.1 -14.2 -6.5 -14.2 -6.6 0 -10.5 7.8 -6.7 13.2 3.2 4.6 8.8 5 13.2 1z m-187.9 -51.6 c9.2 -6.8 9.3 -19.7 0.1 -25.9 -4.6 -3.2 -12.4 -3.2 -17.1 0 -10.6 7 -8.3 23.9 3.7 27.7 3.9 1.2 10.4 0.3 13.3 -1.8z"/>
  <path d="M857.6 214.7 c-1.2 -0.9 -1.7 -2.3 -1.4 -4.2 0.3 -2.7 0.7 -3 3.8 -3 3.1 0 3.5 0.3 3.8 3 0.3 2.6 -1.7 5.5 -3.8 5.5 -0.3 0 -1.4 -0.6 -2.4 -1.3z"/>
  <path d="M599.4 59 c-5.5 -2.2 -7 -9 -2.9 -13.4 5.7 -6.1 15.8 -0.7 14 7.5 -1 4.5 -6.9 7.6 -11.1 5.9z"/>
  <path d="M1175.2 498.8 c-14 -13.6 -24.8 -30.7 -30.3 -48.3 -1.2 -3.8 -2.5 -7.4 -3 -7.9 -0.5 -0.6 -4.8 0 -10.9 1.3 -5.6 1.2 -10.7 2 -11.4 1.8 -2.7 -1 -5.1 -20.1 -5.1 -39.7 0.1 -20.4 1.4 -29.3 6.7 -46 19.8 -61.9 83.8 -104 149.1 -98 53.8 5 100.9 38.8 121.3 87.1 4.9 11.5 5 10.9 -3.4 12.9 l-7.3 1.7 -1.6 -4.1 c-2.6 -6.5 -7.8 -16 -12.9 -23.9 -6.8 -10.2 -25 -28.1 -36.1 -35.6 l-9.2 -6.1 -7.3 11.2 c-4.1 6.2 -10 15.4 -13.2 20.4 l-5.8 9.2 -6 -2.4 c-10.4 -4.3 -18.4 -5.7 -31.3 -5.7 -10.1 0 -13.5 0.5 -21 2.7 -14.5 4.4 -23.6 9.7 -34.1 20.1 -10.6 10.5 -15.9 18.8 -20.6 32.5 -3 9 -3.2 10.3 -3.3 24 0 10.9 0.4 16.1 1.8 21 3.8 14 13.6 30.3 23.3 38.9 l4.4 3.9 -11.6 18.1 c-6.4 10 -12.1 18.1 -12.6 18.1 -0.6 0 -4.4 -3.3 -8.6 -7.2z"/>
  <path d="M426 360 l0 -51 -22 0 -22 0 0 -21.5 0 -21.5 4.5 0 4.5 0 0 -26.5 0 -26.5 -82.2 0 -82.3 0 -2.2 3.9 c-1.7 2.9 -3.5 4.4 -6.7 5.6 -4.4 1.7 -4.6 1.7 -9 -0.4 -8.5 -4.1 -10 -13.5 -3.1 -19.8 2.8 -2.7 4.3 -3.3 7.9 -3.3 4.9 0 10 3.4 11.7 7.7 l0.9 2.3 84.5 0 84.5 0 0 28.5 0 28.5 4.5 0 4.5 0 0 -39 0 -39 -47 0 -47 0 0 -23.6 0 -23.5 -3.5 -3.3 c-4.1 -3.9 -4.6 -7.9 -1.5 -11.9 4.2 -5.3 12.4 -4 15 2.3 1.1 2.7 1.1 3.7 -0.3 6.5 -0.9 1.8 -2.5 3.6 -3.6 4 -2 0.6 -2.1 1.3 -2.1 23.1 l0 22.4 47 0 47 0 0 41 0 41 8 0 8 0 0 -19.5 0 -19.5 6 0 6 0 0 -15 0 -15 17.5 0 17.5 0 0 -37.5 c0 -31.8 -0.2 -37.5 -1.4 -37.5 -2.5 0 -7.4 -4.9 -8.6 -8.5 -3 -9.2 6.4 -18.3 15.8 -15.2 10 3.3 10.9 18.7 1.3 22.7 l-3.1 1.2 0 37.4 0 37.4 30.5 0 30.5 0 0 -10.9 0 -10.9 -3.5 -0.6 c-5.1 -1 -12 -7.9 -13.5 -13.6 -3.2 -11.8 6.2 -23.9 18.8 -24 14.6 -0.1 24.3 17.5 16.1 29.4 -2.6 3.8 -9.3 8.6 -12.1 8.6 -1.6 0 -1.8 1.1 -1.8 13 l0 13 -32.5 0 -32.5 0 0 14.5 0 14.5 -17.5 0 -17.5 0 0 18 0 18 3.5 0 3.5 0 0 72.5 0 72.5 -10.5 0 -10.5 0 0 -51z m10 -112 l0 -18 -4.5 0 -4.5 0 0 18 0 18 4.5 0 4.5 0 0 -18z m35 -34 l0 -13 -15.5 0 -15.5 0 0 13 0 13 15.5 0 15.5 0 0 -13z m-252.1 3.4 c6.2 -5.1 2.6 -14.6 -5.4 -14.6 -7.9 0 -11.3 8.6 -5.6 14.3 3.6 3.6 7 3.7 11 0.3z m327.1 -48.3 c4.4 -3.2 7 -8 7 -13 0 -16.7 -23.6 -21.2 -29.5 -5.6 -3.2 8.2 -0.5 15.1 7.6 19.3 5 2.6 10.7 2.4 14.9 -0.7z m-230.6 -34.7 c3.2 -3.1 0.8 -8.4 -3.8 -8.4 -2.9 0 -4.6 1.8 -4.6 5 0 1.4 0.5 3.1 1.2 3.8 1.7 1.7 5.4 1.5 7.2 -0.4z m160.5 -16.5 c1.7 -0.6 3.6 -1.9 4.1 -2.9 1.1 -2.1 1.3 -7 0.4 -9.5 -1 -2.5 -6.2 -4.7 -9.4 -4 -7.7 1.7 -9.1 12.6 -2 16.2 3.1 1.6 3 1.6 6.9 0.2z"/>
  <path d="M211.2 214.4 c-3.8 -2.6 -2.2 -7.4 2.4 -7.4 4.5 0 5.8 5 1.9 7.6 -1.8 1.2 -2.4 1.1 -4.3 -0.2z"/>
  <path d="M534.5 163.6 c-2.9 -1.2 -5.5 -5.1 -5.5 -8.1 0 -0.7 1.2 -2.7 2.6 -4.4 2 -2.4 3.4 -3.1 6 -3.1 7.2 0 10.9 8.1 6.2 13.4 -3 3.2 -5.6 3.8 -9.3 2.2z"/>
 </g>
</svg>