<?xml version="1.0" encoding="utf-8"?>
<!DOCTYPE svg PUBLIC "-//W3C//DTD SVG 20010904//EN" "http://www.w3.org/TR/2001/REC-SVG-20010904/DTD/svg10.dtd">
<svg version="1.0" xmlns="http://www.w3.org/2000/svg" width="394px" height="420px" viewBox="0 0 394 420" preserveAspectRatio="xMidYMid meet">
 <g fill="#29296a">
  <path d="M198.25 364 c0.95 -0.25 -0.55 -0.40 -4.35 -0.45 -3.20 0 -5.95 -0.25 -6.10 -0.50 -0.15 -0.25 -1.70 -0.60 -3.40 -0.80 -3.70 -0.35 -17.05 -2.65 -18.15 -3.05 -0.40 -0.20 -0.75 -0.50 -0.75 -0.70 0 -0.20 -0.75 -0.50 -1.60 -0.70 -4.60 -0.90 -13.40 -3.50 -12.95 -3.80 0.30 -0.15 -0.75 -0.70 -2.30 -1.20 -5 -1.60 -8.15 -2.85 -7.95 -3.25 0.15 -0.20 -1.80 -1.10 -4.30 -2.05 -2.45 -0.95 -4.70 -2.15 -4.95 -2.60 -0.25 -0.50 -0.70 -0.90 -0.95 -0.90 -0.90 0 -7 -3.10 -6.75 -3.45 0.10 -0.20 -1.25 -1.10 -3.05 -1.95 -1.80 -0.90 -3.35 -1.95 -3.50 -2.35 -0.15 -0.40 -1.80 -1.55 -3.60 -2.55 -1.85 -1.05 -3.55 -2.15 -3.75 -2.55 -0.20 -0.35 -1.20 -1.20 -2.20 -1.85 -2.95 -2.05 -15.05 -13.35 -17.95 -16.85 -0.30 -0.40 -1 -1.05 -1.50 -1.50 -0.55 -0.45 -2.05 -2.20 -3.45 -3.95 -1.35 -1.70 -3.20 -3.85 -4 -4.75 -0.85 -0.90 -2.40 -3.05 -3.50 -4.80 -1.05 -1.75 -2.30 -3.45 -2.75 -3.75 -0.40 -0.35 -1.40 -1.95 -2.20 -3.60 -0.80 -1.70 -1.60 -2.95 -1.80 -2.85 -0.20 0.10 -1.20 -1.60 -2.25 -3.75 -1.05 -2.15 -2.05 -3.85 -2.25 -3.75 -0.15 0.10 -1.30 -2.15 -2.45 -5.05 -1.20 -2.85 -2.35 -5.20 -2.55 -5.20 -0.25 0 -1.15 -2.25 -2.05 -5 -0.90 -2.75 -1.80 -4.75 -1.95 -4.50 -0.30 0.50 -2 -5.15 -3.80 -12.60 -0.45 -1.85 -1 -3.30 -1.20 -3.15 -0.45 0.30 -1.70 -5.85 -2.85 -14.10 -0.45 -3.40 -1 -6.15 -1.25 -6.15 -0.20 0 -0.40 -2.75 -0.45 -6.10 0 -3.90 -0.20 -5.80 -0.45 -5.15 -0.25 0.60 -0.45 -3.55 -0.45 -10.25 0 -6.70 0.20 -10.85 0.45 -10.25 0.30 0.65 0.45 -0.95 0.45 -4.50 0.05 -3.05 0.25 -5.75 0.50 -6 0.25 -0.30 0.80 -3.30 1.30 -6.75 1.20 -8.65 3.10 -17.55 3.30 -15.20 0 0.25 0.55 -1.60 1.20 -4.05 1.95 -7.65 2.80 -10.25 3.20 -10.05 0.20 0.15 0.80 -1.05 1.30 -2.60 1.65 -5.30 2.80 -8.10 3.30 -7.85 0.25 0.20 0.45 0.05 0.45 -0.25 0 -0.95 3.60 -9 4 -9 0.20 0 1.30 -1.90 2.40 -4.25 1.15 -2.35 2.30 -4.25 2.55 -4.25 0.30 0 0.90 -0.85 1.30 -1.85 0.45 -1 1.65 -3 2.70 -4.35 1.05 -1.40 2.50 -3.50 3.25 -4.70 0.70 -1.15 1.50 -2.10 1.80 -2.10 0.25 0 1 -0.90 1.65 -2 2.90 -4.90 20.80 -22.90 25.70 -25.85 1 -0.60 2 -1.45 2.25 -1.85 0.25 -0.40 1.75 -1.55 3.40 -2.55 1.65 -1 3 -2 3 -2.20 0 -0.25 1.40 -1.15 3.15 -2.05 1.70 -0.95 3.35 -2.05 3.70 -2.50 0.35 -0.45 2.30 -1.60 4.35 -2.50 2.10 -0.90 3.65 -1.80 3.55 -2 -0.25 -0.40 7.80 -4 8.85 -4 0.25 0 0.35 -0.20 0.15 -0.45 -0.25 -0.50 2.55 -1.65 7.85 -3.30 1.55 -0.50 2.75 -1.10 2.60 -1.30 -0.25 -0.40 1.65 -1.05 9.45 -3.10 2.40 -0.60 4.20 -1.30 4 -1.55 -0.20 -0.20 0.30 -0.25 1.10 -0.05 1 0.20 1.30 0.20 0.85 -0.15 -0.75 -0.50 6 -1.95 14.55 -3.15 2.40 -0.35 4.35 -0.80 4.35 -1.05 0 -0.20 1.65 -0.40 3.70 -0.40 2.55 0 3.80 -0.20 3.95 -0.60 0.15 -0.50 3.50 -0.65 14.65 -0.60 13.80 0 23.30 0.65 25.30 1.75 0.50 0.25 2.50 0.70 4.50 0.95 6.50 0.90 15.20 2.70 14.15 2.90 -0.55 0.15 1.50 0.85 4.50 1.60 8.10 2 11.30 3.05 11 3.45 -0.10 0.20 2.05 1.15 4.80 2.05 2.70 0.90 5.15 1.90 5.35 2.25 0.20 0.35 2.15 1.35 4.35 2.25 2.20 0.85 4.25 1.90 4.55 2.25 0.30 0.40 2 1.40 3.80 2.25 1.80 0.85 3.70 2 4.20 2.55 0.50 0.55 1.80 1.40 2.95 1.90 1.15 0.50 2.85 1.60 3.80 2.40 0.90 0.80 2.75 2.10 4.10 2.85 1.30 0.80 2.35 1.60 2.35 1.85 0 0.25 0.75 0.90 1.65 1.45 2.45 1.50 6.25 4.95 14.45 13.25 8.85 8.90 9.75 9.85 11.55 12.50 0.75 1.10 1.70 2.25 2.05 2.50 0.35 0.30 1.50 1.80 2.50 3.40 1 1.55 2 2.85 2.25 2.85 0.20 0 1.25 1.70 2.30 3.75 1.05 2.05 2.05 3.60 2.25 3.50 0.20 -0.10 1.20 1.60 2.25 3.75 1.05 2.15 2.10 3.85 2.25 3.75 0.20 -0.15 1.20 1.90 2.25 4.50 1.05 2.60 2.10 4.60 2.25 4.50 0.35 -0.20 2.20 4.55 3.55 9.15 0.35 1.25 0.75 1.90 1 1.55 0.35 -0.65 1.20 2 3.05 9.40 0.60 2.55 1.25 4.40 1.45 4.10 0.50 -0.85 2.45 8.50 3.50 16.80 0.45 3.60 0.70 4.70 1.05 4 0.30 -0.75 0.35 -0.50 0.25 0.90 -0.10 1 0 1.85 0.20 1.85 0.75 0 1.60 16.15 1.30 25.05 -0.35 10.25 -1.35 20.65 -1.85 19.15 -0.25 -0.60 -0.50 0.20 -0.70 2.30 -0.45 3.85 -1.70 11.55 -2.30 14 -0.20 0.95 -0.55 2.40 -0.70 3.20 -0.20 0.75 -0.50 1.25 -0.70 1.10 -0.15 -0.20 -0.90 2 -1.65 4.80 -2.25 8.80 -2.50 9.60 -2.95 8.95 -0.25 -0.45 -0.45 -0.20 -0.70 0.80 -0.65 2.90 -3.45 10.15 -3.80 9.90 -0.20 -0.10 -1.20 1.90 -2.20 4.50 -1.05 2.60 -2.10 4.65 -2.35 4.60 -0.25 -0.05 -1.25 1.60 -2.20 3.65 -0.90 2.05 -2.05 4 -2.50 4.30 -0.45 0.35 -1.35 1.70 -2 3.05 -0.70 1.35 -1.70 2.95 -2.20 3.50 -0.55 0.60 -1.80 2.30 -2.80 3.85 -1 1.55 -2 2.80 -2.25 2.80 -0.25 0 -1 0.95 -1.70 2.15 -0.70 1.20 -1.80 2.65 -2.40 3.20 -0.65 0.60 -2.25 2.35 -3.65 3.90 -3.20 3.65 -8.40 8.80 -12 12 -1.55 1.40 -3.55 3.20 -4.40 4.05 -0.90 0.85 -2.40 2.05 -3.45 2.65 -1 0.60 -1.90 1.35 -2.05 1.75 -0.15 0.35 -1.70 1.50 -3.50 2.50 -1.80 0.95 -3.35 2.05 -3.50 2.40 -0.10 0.35 -1.70 1.40 -3.55 2.35 -1.80 0.90 -3.20 1.85 -3.05 2.05 0.15 0.20 -1.65 1.25 -4 2.30 -2.30 1.05 -4.10 2.05 -3.95 2.25 0.20 0.30 -5.40 2.85 -8.25 3.70 -0.70 0.20 -0.95 0.50 -0.60 0.70 0.30 0.20 -2.05 1.20 -5.20 2.30 -3.15 1.05 -5.60 2.05 -5.50 2.25 0.25 0.40 -2.90 1.40 -9.50 3.05 -2.45 0.60 -4.85 1.40 -5.25 1.75 -0.75 0.60 -12.30 2.80 -18.35 3.45 -1.75 0.20 -3 0.55 -2.85 0.80 0.15 0.25 -2.10 0.45 -5.30 0.45 -3.60 0 -5.45 0.20 -5.25 0.50 0.20 0.35 -3.50 0.50 -10.85 0.45 -6.25 -0.05 -10.50 -0.25 -9.65 -0.45z m54.75 -68.50 c0 -0.30 1.75 -0.50 4.25 -0.50 2.35 0 4.25 -0.20 4.25 -0.45 0 -0.30 1.05 -0.60 2.40 -0.80 7.25 -0.90 15.65 -3.05 16.60 -4.30 0.15 -0.20 1.95 -0.85 4 -1.45 2.05 -0.60 4.10 -1.55 4.50 -2.05 0.40 -0.50 2.30 -1.50 4.25 -2.20 1.90 -0.65 4 -1.80 4.60 -2.50 0.65 -0.65 2.40 -1.80 3.90 -2.45 1.50 -0.70 3.10 -1.85 3.55 -2.55 0.45 -0.70 1.55 -1.65 2.40 -2.10 0.85 -0.40 2.35 -1.55 3.30 -2.45 0.95 -0.90 3.35 -3.20 5.25 -5.05 1.95 -1.90 4.05 -4.25 4.70 -5.25 0.60 -1.05 1.40 -1.90 1.75 -1.90 0.35 0 1.40 -1.35 2.35 -3 0.95 -1.65 1.95 -3 2.20 -3 0.30 0 1.25 -1.35 2.15 -3 0.90 -1.65 1.95 -3.15 2.35 -3.35 0.35 -0.25 1.35 -1.90 2.20 -3.75 0.80 -1.80 1.90 -3.75 2.40 -4.25 0.50 -0.50 1.60 -2.75 2.40 -4.90 0.75 -2.20 1.70 -4.15 2.05 -4.40 0.35 -0.20 1.25 -2.35 1.95 -4.75 1.20 -4.10 1.80 -5.75 2.75 -7.65 0.75 -1.45 3.45 -13.85 4.35 -19.90 0.25 -1.45 0.15 -1.65 -0.60 -1.40 -0.45 0.20 -1.40 0.50 -2.05 0.65 -0.65 0.15 -1.20 0.60 -1.20 0.95 0 0.40 -1.95 1.35 -4.75 2.25 -2.75 0.90 -4.75 1.85 -4.75 2.25 0 0.40 -2.25 1.30 -5.85 2.30 -3.20 0.95 -6.20 2.05 -6.60 2.55 -0.90 0.90 -4.45 1.90 -11.30 3.15 -2.50 0.50 -4.70 1.15 -5 1.60 -0.45 0.60 -2.20 0.70 -10.95 0.55 -9.25 -0.15 -10.40 -0.25 -10.85 -1 -0.30 -0.50 -0.85 -0.90 -1.30 -0.90 -1.75 0 -9.45 -2.60 -10.05 -3.40 -0.35 -0.45 -2.35 -1.55 -4.50 -2.40 -2.10 -0.90 -3.90 -1.95 -4 -2.35 -0.10 -0.35 -1.50 -1.35 -3.10 -2.10 -1.65 -0.80 -3 -1.70 -3 -2 0 -0.30 -1.70 -1.40 -3.75 -2.40 -2.05 -1.05 -3.95 -2.30 -4.25 -2.85 -0.25 -0.50 -1.65 -1.55 -3 -2.30 -1.40 -0.75 -2.50 -1.65 -2.50 -2.05 0 -0.35 -1.05 -1.15 -2.30 -1.70 -1.25 -0.60 -2.50 -1.60 -2.80 -2.20 -0.25 -0.60 -1.40 -1.50 -2.50 -2 -1.10 -0.50 -2.85 -1.70 -3.85 -2.70 -1 -1.05 -2.75 -2.40 -3.90 -3.05 -1.20 -0.65 -2.15 -1.45 -2.15 -1.80 0 -0.35 -1.25 -1.30 -2.75 -2.15 -1.50 -0.85 -2.75 -1.90 -2.75 -2.25 0 -0.40 -1.40 -1.50 -3.10 -2.40 -1.65 -0.90 -3.15 -2 -3.25 -2.45 -0.15 -0.45 -1.55 -1.55 -3.20 -2.45 -1.60 -0.95 -2.95 -1.95 -2.95 -2.30 0 -0.35 -1.25 -1.30 -2.75 -2.15 -1.50 -0.85 -2.75 -1.85 -2.75 -2.20 0 -0.35 -1.70 -1.45 -3.75 -2.50 -2.05 -1 -3.75 -2.15 -3.75 -2.55 0 -0.35 -1.25 -1.20 -2.75 -1.80 -1.55 -0.60 -3 -1.50 -3.25 -2 -0.25 -0.50 -2.50 -1.65 -5 -2.55 -2.45 -0.95 -4.50 -1.95 -4.50 -2.30 0 -0.55 -8.80 -3.65 -10.35 -3.65 -0.35 0 -0.65 -0.30 -0.65 -0.70 0 -0.75 -3.90 -1.85 -10.85 -3.10 -2.55 -0.45 -4.65 -1 -4.65 -1.25 0 -0.25 -1.10 -0.45 -2.45 -0.45 -1.35 0 -2.55 -0.25 -2.65 -0.55 -0.30 -0.85 -18.35 -0.90 -18.85 -0.05 -0.20 0.40 -1.60 0.85 -3.10 1.10 -4.15 0.65 -12.40 2.40 -14.30 3.05 -0.90 0.30 -1.65 0.80 -1.65 1.10 0 0.35 -0.95 0.90 -2.10 1.25 -4.15 1.25 -7.65 2.80 -8.65 3.80 -0.55 0.60 -2.20 1.60 -3.65 2.25 -1.40 0.70 -2.60 1.50 -2.60 1.85 0 0.35 -1.20 1.30 -2.70 2.15 -1.50 0.85 -2.85 1.95 -3.05 2.50 -0.15 0.50 -1.05 1.30 -2 1.75 -0.90 0.45 -1.85 1.25 -2 1.80 -0.15 0.55 -0.90 1.40 -1.65 1.95 -0.75 0.55 -2.15 2.10 -3.10 3.50 -0.95 1.40 -1.95 2.55 -2.25 2.55 -0.25 0 -1.15 1.25 -2 2.80 -0.80 1.55 -1.85 3 -2.30 3.20 -0.45 0.25 -1.55 2.20 -2.45 4.35 -0.95 2.15 -2 4.10 -2.35 4.30 -0.35 0.20 -1.30 2.70 -2.20 5.50 -0.85 2.80 -1.75 5.20 -2 5.35 -0.50 0.35 -1.95 6.25 -1.95 8.05 0 1.25 0.10 1.30 2.25 1.05 1.75 -0.15 2.30 -0.05 2.55 0.60 0.15 0.45 0.80 0.80 1.40 0.80 2.25 0.05 11.20 2.90 12.25 3.95 0.55 0.55 1.35 1.05 1.65 1.05 1.30 0 6.60 2.45 7.35 3.40 0.45 0.55 1.85 1.45 3.10 2 1.25 0.55 2.70 1.45 3.25 2 0.50 0.55 2.35 1.75 4.10 2.60 1.70 0.90 3.10 1.95 3.10 2.30 0 0.35 1 1.10 2.25 1.70 1.25 0.60 2.90 1.75 3.65 2.50 0.80 0.75 2.55 2.10 3.90 2.90 1.35 0.85 2.75 2 3.05 2.55 0.35 0.55 1.50 1.45 2.55 2 1.10 0.55 2.30 1.55 2.75 2.20 0.45 0.70 1.60 1.75 2.55 2.35 1 0.60 1.80 1.35 1.80 1.65 0 0.35 1.35 1.45 3 2.50 1.65 1.05 3 2.20 3 2.55 0 0.40 0.60 0.95 1.40 1.25 0.75 0.30 2.80 1.95 4.55 3.55 1.75 1.65 3.45 3 3.70 3 0.30 0 1.35 0.80 2.30 1.75 1 0.95 2.80 2.75 4.05 3.95 1.25 1.20 2.95 2.55 3.85 3 0.85 0.45 1.70 1.20 1.85 1.65 0.15 0.50 1.45 1.55 2.85 2.30 1.40 0.80 2.65 1.75 2.80 2.15 0.15 0.35 1.50 1.40 3 2.25 1.50 0.85 2.85 1.90 3 2.30 0.15 0.40 1.80 1.45 3.65 2.40 1.85 0.95 3.50 2 3.65 2.40 0.15 0.35 1.75 1.30 3.55 2.15 1.80 0.80 3.40 1.80 3.55 2.25 0.25 0.70 6.35 3.45 7.65 3.45 0.25 0 0.80 0.45 1.15 1 0.40 0.55 2.60 1.65 4.90 2.50 2.30 0.80 4.45 1.80 4.75 2.20 0.50 0.70 3.35 1.60 8.70 2.90 1.15 0.25 2.10 0.70 2.10 0.95 0 0.25 0.55 0.45 1.25 0.45 0.70 0 1.25 0.20 1.25 0.45 0 0.50 6.80 1.95 16.15 3.30 1 0.15 1.85 0.50 1.85 0.75 0 0.30 1.90 0.50 4.25 0.50 2.50 0 4.25 0.20 4.25 0.50 0 0.30 2.60 0.50 6.75 0.50 4.15 0 6.75 -0.20 6.75 -0.50z m-132.75 -5.25 c0.30 -0.30 1.05 -0.85 1.65 -1.20 1.40 -0.75 2.60 -3.35 2.60 -5.60 0 -1.20 -0.50 -2.10 -2.15 -3.75 -1.20 -1.15 -2.75 -2.30 -3.50 -2.45 -1.95 -0.50 -5.45 0.75 -6.15 2.20 -0.35 0.65 -0.85 1.35 -1.15 1.50 -0.95 0.60 -1.45 2.75 -0.90 4.30 0.80 2.30 3.85 5.45 5.60 5.75 1.85 0.35 3.35 0.05 4 -0.75z m165.30 -134.35 c0.30 -1.15 0.80 -2.35 1.15 -2.70 0.35 -0.35 0.95 -2.05 1.30 -3.80 1 -4.95 1.65 -6.15 4.20 -7.65 1.25 -0.75 2.30 -1.50 2.30 -1.75 0 -0.20 0.50 -0.55 1.15 -0.70 1.95 -0.60 6 -1.65 9 -2.30 1.55 -0.35 2.85 -0.80 2.85 -1 0 -0.20 -0.75 -0.55 -1.70 -0.70 -0.95 -0.20 -1.80 -0.60 -1.95 -0.95 -0.15 -0.35 -2.55 -1.20 -5.30 -1.85 -7.95 -1.85 -8.65 -2.55 -10.85 -10.40 -0.60 -2.35 -1.35 -4.40 -1.55 -4.55 -0.25 -0.15 -0.75 -1.25 -1.15 -2.45 -0.85 -2.70 -1 -2.40 -2.75 4.90 -0.80 3.15 -1.55 5.85 -1.75 6 -0.20 0.15 -0.95 1.30 -1.70 2.60 -1.50 2.55 -1.15 2.40 -8.40 4.20 -1.90 0.45 -3.40 1.10 -3.40 1.45 0 0.30 -1.30 0.90 -2.85 1.25 -3.45 0.75 -3.10 1 3.80 2.50 2.80 0.65 5.25 1.45 5.40 1.80 0.15 0.35 1.35 1 2.70 1.45 1.35 0.45 2.45 1 2.45 1.20 0 0.20 0.65 1.35 1.45 2.60 0.90 1.35 1.95 4.30 2.80 7.80 0.80 3.10 1.60 5.50 1.80 5.35 0.25 -0.15 0.65 -1.15 1 -2.30z"/>
 </g>
 <g fill="#f7f7f8">
  <path d="M198.25 364 c0.85 -0.20 4.75 -0.40 8.75 -0.45 4 -0.05 10.50 -0.30 14.45 -0.55 4.85 -0.35 7.40 -0.35 7.75 0 0.35 0.35 -1.35 0.50 -5.15 0.50 -3.60 0 -5.50 0.20 -5.30 0.50 0.20 0.35 -3.50 0.50 -10.85 0.45 -6.25 -0.05 -10.50 -0.25 -9.65 -0.45z"/>
  <path d="M187.75 363 c-0.30 -0.45 10.15 -0.15 10.70 0.30 0.10 0.10 -2.15 0.20 -5.10 0.20 -2.95 0 -5.45 -0.20 -5.60 -0.50z"/>
  <path d="M170.15 360.05 c-3.95 -0.80 -5.10 -1.25 -4.55 -1.80 0.20 -0.20 4.05 0.40 9.30 1.55 1.30 0.25 1.50 1.20 0.25 1.15 -0.50 -0.05 -2.75 -0.45 -5 -0.90z"/>
  <path d="M239.50 360.50 c0 -0.25 0.05 -0.50 0.15 -0.50 0.10 0 2.65 -0.45 5.60 -1 3 -0.50 5.55 -0.90 5.60 -0.80 0.50 0.50 -1.65 1.30 -5.40 2 -5 0.95 -5.95 1 -5.95 0.30z"/>
  <path d="M154.10 355.35 c-2.45 -0.65 -3.45 -1.15 -2.95 -1.40 0.85 -0.50 8.45 1.50 8.05 2.10 -0.35 0.60 -0.85 0.55 -5.10 -0.70z"/>
  <path d="M258 355.80 c0 -0.75 6.55 -2.45 7.15 -1.85 0.35 0.35 -1.95 1.25 -5.50 2.05 -1.20 0.30 -1.65 0.20 -1.65 -0.20z"/>
  <path d="M146.50 352.15 c-0.40 -0.15 -1.95 -0.75 -3.40 -1.25 -1.50 -0.55 -2.50 -1.20 -2.25 -1.40 0.55 -0.55 6.50 1.45 6.85 2.30 0.30 0.75 0.05 0.80 -1.20 0.35z"/>
  <path d="M268.80 351.80 c0.35 -0.90 5.95 -2.85 7.05 -2.45 0.50 0.20 -0.70 0.85 -3.15 1.75 -4.55 1.65 -4.25 1.60 -3.90 0.70z"/>
  <path d="M134.55 346.80 c-1.45 -0.65 -2.90 -1.50 -3.15 -1.95 -0.35 -0.65 0 -0.65 2.20 0.25 1.45 0.60 3.05 1.50 3.55 2 1.10 1.15 0.75 1.10 -2.60 -0.30z"/>
  <path d="M279.40 347 c1.05 -1.15 4.95 -2.65 5.35 -2.05 0.20 0.35 -5.20 3.05 -6.05 3.05 -0.15 0 0.15 -0.45 0.70 -1z"/>
  <path d="M287.85 342.55 c0.50 -0.50 2.15 -1.55 3.65 -2.25 1.50 -0.75 2.30 -1 1.80 -0.55 -0.55 0.40 -0.80 0.75 -0.50 0.75 0.50 0.05 -4.80 2.95 -5.45 3 -0.20 0 0 -0.40 0.50 -0.95z"/>
  <path d="M125.65 341.90 c-2.60 -1.20 -2.35 -2.20 0.25 -1.15 2.10 0.90 2.25 1.05 2.05 1.65 -0.10 0.30 -1.15 0.05 -2.30 -0.50z"/>
  <path d="M119.90 338.25 c-1.30 -0.70 -2.60 -1.65 -2.85 -2.20 -0.50 -0.90 -0.45 -0.90 1.25 -0.05 1.45 0.75 4.80 3.55 4.15 3.50 -0.10 -0.05 -1.25 -0.60 -2.55 -1.25z"/>
  <path d="M295.10 338.05 c0.75 -1.20 4.95 -3.35 4.60 -2.30 -0.30 0.70 -2.55 2.25 -4.30 2.90 -0.75 0.25 -0.80 0.15 -0.30 -0.60z"/>
  <path d="M112 332.85 c-0.95 -0.55 -1.95 -1.35 -2.15 -1.70 -0.20 -0.35 -1.20 -1.20 -2.20 -1.85 -2.95 -2.05 -15.05 -13.35 -17.95 -16.85 -0.30 -0.40 -1 -1.05 -1.50 -1.50 -0.55 -0.45 -2.05 -2.20 -3.45 -3.95 -1.35 -1.70 -3.20 -3.85 -4 -4.75 -0.85 -0.90 -2.40 -3.05 -3.50 -4.80 -1.05 -1.75 -2.25 -3.40 -2.60 -3.60 -0.35 -0.20 -1.25 -1.55 -1.95 -3 l-1.35 -2.60 1.25 1.25 c0.65 0.70 2.10 2.75 3.15 4.65 1.10 1.85 2.10 3.35 2.30 3.35 0.20 0 1.05 1.15 1.95 2.50 0.90 1.40 2 2.80 2.45 3.15 0.45 0.35 1.50 1.55 2.30 2.70 0.85 1.20 1.80 2.15 2.10 2.15 0.35 0 0.95 0.60 1.35 1.40 0.95 1.65 6.05 7.05 10.05 10.55 1.65 1.45 4.25 3.80 5.75 5.15 4.90 4.50 5.70 5.20 7.60 6.30 1 0.60 1.95 1.45 2.10 1.85 0.15 0.40 0.20 0.75 0.15 0.70 -0.05 0 -0.90 -0.50 -1.85 -1.10z"/>
  <path d="M303 332.85 c0 -0.35 0.90 -1.20 2.05 -1.80 1.10 -0.65 2.80 -1.85 3.70 -2.75 0.95 -0.85 2.75 -2.45 4.05 -3.55 4.35 -3.70 17.05 -16.60 18.45 -18.65 0.75 -1.15 1.90 -2.40 2.55 -2.85 l1.15 -0.75 -0.95 1.65 c-0.55 0.90 -1.50 2.15 -2.10 2.75 -0.65 0.55 -2.25 2.30 -3.65 3.85 -3.20 3.65 -8.40 8.80 -12 12 -1.55 1.40 -3.55 3.20 -4.40 4.05 -0.90 0.85 -2.40 2.05 -3.45 2.65 -1 0.60 -1.90 1.40 -2.05 1.80 -0.20 0.40 -1 1.05 -1.80 1.50 -1.25 0.60 -1.55 0.65 -1.55 0.10z"/>
  <path d="M335.65 300.65 c0.45 -0.80 1.30 -2 2 -2.65 0.65 -0.70 2.10 -2.60 3.15 -4.25 2 -3.15 3.20 -4.60 3.20 -3.90 0 0.55 -2.85 5.05 -3.80 6 -0.40 0.40 -1.30 1.70 -2 2.95 -0.70 1.20 -1.75 2.45 -2.30 2.75 -0.90 0.50 -0.95 0.45 -0.25 -0.90z"/>
  <path d="M114.75 292.60 c-2 -0.45 -4.95 -3.75 -5.75 -6.45 -0.75 -2.40 -0.35 -5.25 0.90 -6.45 0.45 -0.50 1.10 -1.35 1.35 -1.90 1.05 -2.05 7.35 -3.05 10.20 -1.60 0.75 0.40 2.10 1.55 3 2.55 1.35 1.60 1.55 2.15 1.55 4.80 0 3.50 -0.95 6.15 -2.60 7 -0.60 0.35 -1.35 0.90 -1.65 1.30 -0.60 0.80 -4.80 1.25 -7 0.75z"/>
  <path d="M344.60 288.15 c1.35 -2.75 2.25 -4.15 2.75 -4.35 0.60 -0.25 -0.45 2.60 -1.50 4.10 -0.50 0.65 -1.55 0.85 -1.25 0.25z"/>
  <path d="M68.25 283.50 c-1.05 -2.15 -2.10 -3.85 -2.35 -3.70 -0.20 0.15 -0.40 0.15 -0.40 0 0 -0.15 -0.45 -1.40 -1 -2.80 -1.55 -4 -0.25 -2.90 2 1.65 1.10 2.25 2.60 5.05 3.25 6.20 0.70 1.15 1.10 2.20 0.85 2.35 -0.25 0.15 -1.30 -1.55 -2.35 -3.70z"/>
  <path d="M350.45 277.15 c0.70 -1.70 1.60 -3.15 1.90 -3.15 0.60 0 0.40 0.65 -1.65 5.80 -0.15 0.30 -0.55 0.55 -0.90 0.55 -0.50 0 -0.30 -0.90 0.65 -3.20z"/>
  <path d="M354.30 271.05 c-0.35 -0.50 0.30 -2.10 2.20 -5.55 1.30 -2.40 1.25 -1.75 -0.30 2.30 -1.45 3.90 -1.50 3.95 -1.90 3.25z"/>
  <path d="M61.10 269.70 c-0.55 -0.60 -2.60 -5.80 -2.60 -6.65 0 -0.75 1.75 2.35 2.60 4.55 1 2.70 1 3.20 0 2.10z"/>
  <path d="M265 269.85 c-0.15 -0.15 -3.50 -0.65 -7.50 -1.10 -8.45 -0.95 -14.10 -2.10 -14.60 -3 -0.20 -0.35 -1.45 -0.80 -2.75 -1 -3.30 -0.50 -10.05 -2.65 -10.25 -3.30 -0.10 -0.30 -2.20 -1.15 -4.65 -2 -2.50 -0.80 -4.85 -1.85 -5.25 -2.35 -0.40 -0.50 -2.40 -1.55 -4.40 -2.30 -2 -0.75 -3.80 -1.80 -4.10 -2.25 -0.25 -0.50 -1.90 -1.50 -3.70 -2.25 -1.80 -0.75 -3.40 -1.75 -3.55 -2.20 -0.15 -0.50 -1.85 -1.60 -3.80 -2.50 -1.90 -0.90 -3.45 -1.95 -3.45 -2.30 0 -0.40 -1.25 -1.30 -2.75 -2.05 -1.50 -0.80 -2.85 -1.80 -3.05 -2.35 -0.15 -0.50 -1 -1.20 -1.85 -1.60 -0.90 -0.35 -2.15 -1.20 -2.85 -1.90 -0.70 -0.65 -2.40 -2.05 -3.80 -3.05 -1.45 -1 -2.95 -2.40 -3.40 -3.10 -0.50 -0.70 -1.45 -1.55 -2.20 -1.90 -0.75 -0.30 -6.20 -5.45 -12.20 -11.40 -5.95 -5.95 -11.50 -11.25 -12.30 -11.75 -0.85 -0.45 -1.80 -1.40 -2.15 -2.05 -0.35 -0.65 -0.80 -1.15 -1.05 -1.15 -0.80 0 -3.90 -2.25 -4.15 -3 -0.15 -0.40 -1.85 -1.55 -3.75 -2.50 -1.95 -0.95 -3.50 -2 -3.50 -2.30 0 -0.30 -1.30 -1.10 -2.85 -1.70 -5.20 -1.95 -6.65 -2.65 -6.65 -3.05 0 -0.65 -3.75 -1.50 -9.75 -2.20 -4.60 -0.50 -6.65 -0.50 -11.60 0 -9.10 1 -15.65 2.40 -15.65 3.30 0 0.20 -0.95 0.65 -2.10 0.95 -5.45 1.40 -8.80 2.55 -9.05 3.15 -0.10 0.35 -1.55 1.05 -3.15 1.55 -5.50 1.70 -8.20 2.85 -8.20 3.50 0 0.80 -2.85 1.80 -5.20 1.80 l-1.90 0 0.35 -2.85 c0.50 -4.35 1.80 -9.80 2.50 -10.65 0.35 -0.40 1.35 -3.05 2.25 -5.90 0.90 -2.80 1.90 -5.30 2.25 -5.50 0.35 -0.20 1.30 -1.85 2.15 -3.70 0.85 -1.90 1.75 -3.40 2.05 -3.40 0.25 0 1.35 -1.45 2.35 -3.30 1 -1.80 1.95 -3.15 2.10 -3 0.15 0.15 1.25 -1.05 2.45 -2.70 1.20 -1.65 2.40 -3 2.65 -3 0.30 0 0.95 -0.75 1.50 -1.60 0.50 -0.90 1.65 -1.95 2.45 -2.30 0.85 -0.35 1.65 -1.10 1.80 -1.65 0.20 -0.55 1.55 -1.65 3.05 -2.50 1.50 -0.85 2.70 -1.80 2.70 -2.15 0 -0.30 1.45 -1.30 3.25 -2.20 1.85 -0.90 3.20 -1.80 3.05 -2.05 -0.30 -0.45 0.25 -0.70 6.75 -3 2.05 -0.75 3.70 -1.55 3.60 -1.85 -0.20 -0.65 2.50 -1.50 8.70 -2.70 3.25 -0.60 4.95 -1.20 5.40 -1.85 0.55 -0.75 0.90 -0.80 2.10 -0.40 1.50 0.60 3.30 0.45 2.90 -0.20 -0.10 -0.25 2 -0.55 4.75 -0.75 6.15 -0.45 18.10 0.15 17.65 0.85 -0.20 0.30 0.45 0.40 1.80 0.20 1.35 -0.15 2.30 -0.05 2.75 0.40 0.35 0.35 2.65 1 5.10 1.45 7.50 1.40 11.25 2.45 11 3.15 -0.15 0.35 0 0.65 0.30 0.65 1.55 0 10.90 3.25 10.75 3.70 -0.10 0.30 1.75 1.30 4.10 2.20 2.35 0.90 4.65 2.05 5.05 2.60 0.40 0.50 2.05 1.50 3.65 2.20 1.60 0.70 2.80 1.50 2.60 1.80 -0.15 0.25 1.40 1.30 3.50 2.35 2.05 1.05 3.75 2.15 3.75 2.50 0 0.35 1.25 1.35 2.75 2.20 1.50 0.85 2.75 1.80 2.75 2.15 0 0.35 1.35 1.35 2.95 2.30 1.65 0.90 3.05 2 3.20 2.45 0.10 0.45 1.60 1.55 3.25 2.45 1.70 0.90 3.10 2 3.10 2.40 0 0.35 1.25 1.40 2.75 2.25 1.50 0.85 2.75 1.80 2.75 2.15 0 0.35 0.95 1.15 2.15 1.80 1.15 0.65 2.90 2 3.90 3.05 1 1 2.75 2.20 3.85 2.70 1.10 0.50 2.25 1.40 2.50 2 0.30 0.60 1.55 1.60 2.80 2.20 1.25 0.55 2.30 1.35 2.30 1.70 0 0.35 1.35 1.40 2.95 2.35 1.65 0.90 2.95 1.90 2.90 2.20 -0.05 0.25 1.65 1.40 3.80 2.50 2.10 1.15 3.85 2.30 3.85 2.60 0 0.30 1.35 1.15 3 1.95 1.60 0.75 3 1.75 3.10 2.10 0.10 0.40 1.90 1.45 4 2.35 2.15 0.85 4.15 1.95 4.50 2.40 0.60 0.80 8.30 3.40 10.05 3.40 0.45 0 1 0.40 1.30 0.90 0.40 0.75 1.55 0.85 9.35 1 7.45 0.15 9 0.05 9.45 -0.55 0.30 -0.45 2.45 -1.10 5 -1.60 6.85 -1.25 10.40 -2.25 11.30 -3.15 0.40 -0.50 3.40 -1.60 6.65 -2.55 3.80 -1.10 5.80 -1.90 5.65 -2.30 -0.15 -0.35 1.55 -1.15 4.70 -2.20 2.70 -0.90 4.95 -1.90 4.95 -2.25 0 -0.90 6.60 -2.95 7.10 -2.15 0.45 0.70 0.05 4.55 -0.90 8.35 -0.40 1.50 -0.70 3.25 -0.70 3.90 0 1.30 -2.35 11.25 -2.95 12.55 -0.20 0.45 -0.65 1.25 -0.90 1.80 -0.30 0.60 -0.70 1.75 -0.85 2.60 -0.20 0.85 -0.70 1.85 -1.10 2.20 -0.40 0.30 -0.70 0.85 -0.70 1.15 0 1.05 -2.55 6.05 -3.50 6.80 -0.50 0.40 -1.50 1.95 -2.30 3.40 -0.75 1.50 -2.45 3.80 -3.80 5.20 -1.30 1.35 -2.40 2.70 -2.40 2.95 0 0.25 -0.30 0.45 -0.70 0.45 -0.40 0 -1.30 0.75 -2 1.65 -0.70 0.85 -1.55 1.85 -1.85 2.10 -0.30 0.30 -1.50 1.45 -2.70 2.65 -1.20 1.15 -2.50 2.10 -2.95 2.10 -0.45 0 -0.80 0.25 -0.80 0.50 0 0.30 -1 0.95 -2.25 1.50 -1.25 0.55 -2.25 1.30 -2.25 1.70 0 0.45 -1.60 1.30 -4.25 2.35 -2.35 0.85 -4.25 1.85 -4.25 2.20 0 0.55 -3.35 1.70 -9.30 3.25 -1.15 0.25 -2.20 0.80 -2.35 1.20 -0.30 0.70 -1.65 1 -10.35 2.15 -5.70 0.75 -20.05 1.45 -20.50 1z"/>
  <path d="M358.85 260.40 c-0.30 -0.80 1.35 -6.30 2.10 -7.05 0.75 -0.75 0.70 -0.10 -0.45 3.85 -1.05 3.80 -1.25 4.15 -1.65 3.20z"/>
  <path d="M55.60 256.65 c-0.65 -2.30 -0.90 -4.05 -0.60 -4.35 0.35 -0.35 0.95 1.15 2.30 6.20 0.10 0.40 0 1.05 -0.25 1.40 -0.25 0.40 -0.75 -0.80 -1.45 -3.25z"/>
  <path d="M363.35 246.65 c-0.35 -0.60 1.45 -9.15 2.10 -9.80 0.80 -0.80 0.70 0.65 -0.40 5.55 -1 4.25 -1.25 5 -1.70 4.25z"/>
  <path d="M50.80 240.40 c-0.95 -4.85 -1 -5.80 -0.30 -5.10 0.75 0.75 2.15 8.25 1.60 8.80 -0.30 0.30 -0.75 -1.10 -1.30 -3.70z"/>
  <path d="M367.90 226.25 c-0.20 -0.80 -0.10 -3.85 0.20 -6.75 0.70 -7.05 0.70 -28.10 0 -34.10 -0.40 -3.30 -0.45 -5.20 -0.10 -6 0.45 -1 0.50 -0.90 0.35 0.75 -0.10 1 0 1.85 0.20 1.85 0.80 0 1.60 16 1.25 25.70 -0.40 11.45 -1.40 20.95 -1.90 18.55z"/>
  <path d="M48.50 225.65 c0 -0.85 -0.25 -1.65 -0.55 -1.75 -0.30 -0.10 -0.45 -1.35 -0.35 -3.15 l0.15 -3 0.70 4.40 c0.35 2.40 0.50 4.55 0.35 4.70 -0.15 0.20 -0.30 -0.40 -0.30 -1.20z"/>
  <path d="M46.60 202.75 c0 -6.85 0.15 -11.10 0.40 -10.50 0.55 1.25 0.55 19.05 0 20.75 -0.25 0.70 -0.40 -3.75 -0.40 -10.25z"/>
  <path d="M47.50 186.85 c0 -2.85 0.20 -4.90 0.55 -5.10 0.35 -0.25 0.40 1.15 0.15 4.55 -0.15 2.75 -0.40 5.05 -0.50 5.15 -0.10 0.10 -0.20 -1.95 -0.20 -4.60z"/>
  <path d="M50.25 170.40 c-0.20 -0.50 -0.10 -1.95 0.15 -3.25 0.30 -1.35 0.80 -3.60 1.15 -5.05 1.05 -4.85 1.45 -1.95 0.40 3.15 -1.20 6.10 -1.25 6.20 -1.70 5.15z"/>
  <path d="M364.75 167.15 c-0.20 -1.05 -0.65 -3.20 -1.05 -4.80 -0.45 -1.80 -0.55 -3.15 -0.30 -3.70 0.35 -0.60 0.60 -0.20 1.10 1.80 0.30 1.40 0.65 3.45 0.65 4.50 0.05 1.05 0.25 1.85 0.50 1.70 0.20 -0.10 0.35 0.25 0.35 0.80 0 1.85 -0.95 1.60 -1.25 -0.30z"/>
  <path d="M283.75 160.50 c-0.85 -0.30 -1.35 -1.60 -2.45 -6.05 -0.90 -3.60 -1.95 -6.50 -2.85 -7.90 -0.80 -1.25 -1.45 -2.40 -1.45 -2.60 0 -0.20 -1.20 -0.75 -2.60 -1.20 -1.45 -0.50 -2.85 -1.10 -3.15 -1.40 -0.35 -0.35 -0.25 -0.35 0.25 -0.10 0.50 0.25 0.60 0.25 0.25 -0.10 -0.25 -0.30 -2.65 -1.05 -5.25 -1.60 -6.45 -1.50 -6.45 -1.50 -7.05 -2.60 -0.75 -1.45 0.15 -2.30 3.35 -3 1.50 -0.35 2.70 -0.90 2.70 -1.20 0 -0.35 1.50 -1 3.40 -1.45 7.25 -1.80 6.90 -1.65 8.40 -4.20 0.75 -1.30 1.50 -2.45 1.70 -2.60 0.20 -0.15 0.75 -1.95 1.25 -4 1.75 -7.55 2.20 -8.85 3.45 -9.40 0.65 -0.30 1.35 -0.40 1.55 -0.20 0.65 0.65 1.90 3.85 1.80 4.55 -0.05 0.35 0.10 0.50 0.35 0.35 0.25 -0.15 1 1.70 1.60 4.10 1.45 5.50 2.65 7.90 4.50 9 0.80 0.50 3.75 1.45 6.55 2.10 2.75 0.65 5.15 1.50 5.30 1.85 0.15 0.35 1 0.75 1.95 0.95 2.05 0.40 2.30 0.65 1.90 2.60 -0.25 1.30 -0.60 1.55 -3.10 2.10 -2.95 0.65 -7 1.70 -8.95 2.30 -0.65 0.15 -1.15 0.50 -1.15 0.70 0 0.25 -1 1 -2.25 1.70 -2.70 1.60 -2.90 1.90 -4.20 7.55 -0.60 2.45 -1.45 4.85 -1.90 5.35 -0.40 0.45 -0.65 1.20 -0.50 1.65 0.20 0.40 0.15 0.75 -0.10 0.75 -0.20 0 -0.65 0.55 -0.95 1.25 -0.60 1.35 -0.80 1.40 -2.35 0.75z"/>
  <path d="M54.05 154.75 c0 -0.25 0.30 -1.60 0.70 -3 0.45 -1.35 1 -3.35 1.30 -4.45 0.35 -1.20 0.70 -1.75 1 -1.45 0.50 0.50 -1.30 7.15 -2.05 7.65 -0.20 0.15 -0.50 0.60 -0.65 1 -0.15 0.40 -0.30 0.55 -0.30 0.25z"/>
  <path d="M360 150.75 c0 -0.30 -0.30 -1.55 -0.70 -2.80 -0.40 -1.25 -0.55 -2.60 -0.30 -2.95 0.25 -0.40 0.70 0.40 1.25 2.25 0.55 2.05 0.65 3.05 0.30 3.40 -0.30 0.30 -0.55 0.35 -0.55 0.10z"/>
  <path d="M356.65 140.75 c-0.30 -0.35 -0.45 -0.80 -0.30 -0.95 0.20 -0.15 0.10 -0.30 -0.20 -0.30 -0.75 0 -2.25 -4.60 -1.75 -5.10 0.25 -0.25 1.05 1.15 1.75 3.20 0.70 2 1.25 3.65 1.20 3.70 -0.05 0.05 -0.35 -0.20 -0.70 -0.55z"/>
  <path d="M59 140.80 c0 -0.15 0.45 -1.55 1.05 -3.10 0.65 -1.70 1.25 -2.60 1.50 -2.35 0.55 0.55 -0.70 3.90 -1.85 5 -0.40 0.40 -0.70 0.60 -0.70 0.45z"/>
  <path d="M349.75 126.65 c-1.25 -2.65 -2.45 -5 -2.70 -5.15 -0.75 -0.45 -2.05 -3.45 -1.65 -3.70 0.25 -0.15 1.30 1.55 2.35 3.70 1.05 2.15 2.10 3.85 2.30 3.75 0.20 -0.15 0.60 0.35 0.85 1.15 0.30 0.75 0.85 2.20 1.30 3.25 0.45 1.05 0.60 1.85 0.30 1.85 -0.25 0 -1.50 -2.20 -2.75 -4.85z"/>
  <path d="M64.30 129.10 c0.45 -1 0.90 -2.10 1.05 -2.45 0.10 -0.30 0.55 -0.70 0.90 -0.85 0.50 -0.15 0.40 0.45 -0.35 2.20 -0.55 1.35 -1.30 2.55 -1.70 2.70 -0.55 0.20 -0.55 -0.10 0.10 -1.60z"/>
  <path d="M67 124.85 c0 -0.80 3.55 -7.35 4 -7.35 0.30 0 0.50 0.15 0.50 0.30 0 0.35 -2.60 4.90 -3 5.20 -0.20 0.15 -0.60 0.70 -0.90 1.25 -0.30 0.55 -0.60 0.85 -0.60 0.60z"/>
  <path d="M72 116.15 c0 -0.25 0.60 -1.35 1.40 -2.50 0.75 -1.10 2.40 -3.60 3.70 -5.50 1.30 -1.95 2.70 -3.65 3.15 -3.85 0.70 -0.25 0.70 -0.10 0.05 1.15 -0.40 0.75 -1.35 1.95 -2.05 2.60 -0.70 0.65 -2.05 2.60 -3.05 4.30 -1.65 2.95 -3.20 4.75 -3.20 3.80z"/>
  <path d="M342.50 114.15 c-0.70 -0.95 -2 -2.65 -2.90 -3.80 -0.85 -1.15 -2.25 -3.05 -3.05 -4.20 -2.40 -3.60 -14.85 -17.65 -15.60 -17.65 -0.20 0 -1 -0.70 -1.80 -1.55 -0.75 -0.85 -1.80 -1.95 -2.35 -2.40 -0.50 -0.45 -1.65 -1.55 -2.50 -2.50 -0.85 -0.90 -2.45 -2.25 -3.55 -2.95 -1.10 -0.70 -2.40 -1.80 -2.90 -2.45 -0.55 -0.65 -1.80 -1.60 -2.85 -2.15 -1.05 -0.50 -2 -1.25 -2.15 -1.65 -0.15 -0.35 -1.85 -1.50 -3.80 -2.55 -1.95 -1 -3.45 -2.05 -3.30 -2.30 0.15 -0.20 -0.05 -0.55 -0.35 -0.65 -0.40 -0.20 -0.45 -0.30 -0.10 -0.30 0.35 -0.05 1.70 0.75 3 1.70 1.35 0.95 3.45 2.35 4.65 3.10 1.25 0.75 2.80 2 3.50 2.70 0.75 0.70 1.70 1.55 2.25 1.80 1.55 0.85 6.10 5.05 13.75 12.70 8.30 8.35 11.15 11.50 12.55 13.85 0.55 0.85 1.15 1.60 1.40 1.60 0.20 0 1.15 1.25 2.05 2.75 0.95 1.55 1.95 2.95 2.30 3.15 0.70 0.40 3.45 5.05 3.20 5.35 -0.10 0.10 -0.75 -0.65 -1.45 -1.60z"/>
  <path d="M81.95 102 c2.60 -4.35 20.50 -22.25 25.10 -25.15 l1.60 -1.05 -0.60 1.10 c-0.35 0.60 -1.55 1.70 -2.70 2.40 -3.20 1.95 -18.50 17.15 -20.85 20.70 -0.75 1.15 -1.85 2.40 -2.45 2.80 l-1.10 0.80 1 -1.60z"/>
  <path d="M109.50 75 c0.25 -0.50 1.85 -1.75 3.50 -2.75 1.65 -1 3 -2 3 -2.20 0 -0.20 0.90 -0.85 1.95 -1.45 1.50 -0.85 2 -0.95 2.20 -0.45 0.15 0.45 -0.85 1.25 -2.95 2.25 -1.80 0.90 -3.35 1.95 -3.50 2.35 -0.15 0.40 -1.30 1.25 -2.50 1.95 -1.90 1.05 -2.15 1.10 -1.70 0.30z"/>
  <path d="M291.85 65.70 c-1.30 -0.70 -2.25 -1.45 -2.10 -1.65 0.45 -0.75 2.05 -0.05 3.55 1.50 1.65 1.75 1.60 1.75 -1.45 0.15z"/>
  <path d="M122.60 65.95 c0.20 -0.65 3.70 -2.90 4.50 -2.95 1 0 -0.45 1.60 -2.05 2.35 -1 0.45 -2 0.90 -2.25 1.05 -0.25 0.15 -0.35 -0.05 -0.20 -0.45z"/>
  <path d="M283.20 60.90 c-4.15 -1.80 -5.05 -3.40 -1 -1.85 1.40 0.55 2.80 1.30 3.05 1.65 0.30 0.35 0.95 0.90 1.50 1.20 1.75 1 0.10 0.55 -3.55 -1z"/>
  <path d="M130.50 61.50 c0.40 -0.25 0.55 -0.50 0.25 -0.50 -0.60 -0.05 0.70 -0.85 3 -1.80 1.55 -0.65 1.70 -0.60 1.40 0.10 -0.15 0.45 -1.30 1.25 -2.50 1.75 -2.40 1.05 -3.35 1.20 -2.15 0.45z"/>
  <path d="M139.75 56.55 c-0.15 -0.25 0.90 -0.90 2.35 -1.45 4.55 -1.65 5.05 -1.80 4.80 -1.05 -0.15 0.40 -1.55 1.20 -3.20 1.80 -3.45 1.30 -3.55 1.30 -3.95 0.70z"/>
  <path d="M273.50 56.10 c-2.30 -0.85 -3.60 -2.50 -1.45 -1.85 2.50 0.80 4.45 1.80 4.45 2.25 0 0.65 -0.25 0.60 -3 -0.40z"/>
  <path d="M150.25 52 c-0.15 -0.25 1 -0.85 2.60 -1.25 1.60 -0.45 3.30 -0.95 3.85 -1.10 0.60 -0.15 0.85 -0.05 0.70 0.40 -0.15 0.50 -4.10 1.90 -6.75 2.45 -0.05 0 -0.20 -0.20 -0.40 -0.50z"/>
  <path d="M262.15 51.60 c-2 -0.50 -3.15 -1.05 -3.15 -1.45 0 -0.45 0.35 -0.60 0.90 -0.45 0.45 0.15 2.15 0.60 3.75 1.05 1.55 0.45 2.75 1.05 2.60 1.30 -0.35 0.55 -0.15 0.55 -4.10 -0.45z"/>
  <path d="M165.60 47.05 c-0.45 -0.25 0.80 -0.70 3.50 -1.25 4.85 -0.95 4.90 -0.95 4.90 -0.35 0 0.25 -0.45 0.35 -1 0.20 -0.55 -0.15 -1 -0.05 -1 0.25 0 0.50 -0.60 0.65 -4.35 1.35 -0.80 0.15 -1.70 0.05 -2.05 -0.20z"/>
  <path d="M245.25 46.75 c-1.90 -0.35 -3.55 -0.85 -3.65 -1.20 -0.10 -0.30 -0.55 -0.55 -0.95 -0.55 -0.45 0 -0.70 -0.10 -0.55 -0.25 0.15 -0.15 2.80 0.25 5.95 0.80 4 0.80 5.40 1.20 4.70 1.50 -1.25 0.45 -1.25 0.45 -5.50 -0.30z"/>
  <path d="M184.50 43.05 c0 -0.35 1.35 -0.55 3.70 -0.55 2.05 0 3.80 -0.20 3.90 -0.50 0.55 -1.65 38.45 -0.60 40.15 1.10 0.35 0.35 -0.40 0.40 -2.25 0.20 -1.50 -0.15 -6.40 -0.45 -10.85 -0.60 -4.55 -0.20 -8.15 -0.55 -8.15 -0.80 0 -0.30 -1.10 -0.40 -2.60 -0.20 -1.45 0.15 -6.15 0.50 -10.40 0.75 -4.25 0.25 -9.05 0.65 -10.60 0.80 -2 0.25 -2.90 0.15 -2.90 -0.20z"/>
 </g>
 <g fill="#ec5d2c">
  <path d="M236.75 297 c0.20 -0.30 -1.10 -0.50 -3.45 -0.50 -2.10 0 -3.80 -0.20 -3.80 -0.50 0 -0.25 -0.85 -0.60 -1.85 -0.75 -11.95 -1.75 -18.65 -3.30 -18.65 -4.35 0 -0.15 -0.95 -0.55 -2.10 -0.80 -5.35 -1.30 -8.20 -2.20 -8.70 -2.90 -0.30 -0.40 -2.45 -1.40 -4.75 -2.20 -2.30 -0.85 -4.50 -1.95 -4.90 -2.50 -0.35 -0.55 -0.90 -1 -1.15 -1 -1.30 0 -7.40 -2.75 -7.65 -3.45 -0.15 -0.45 -1.95 -1.55 -4 -2.50 -2.05 -0.95 -3.60 -1.90 -3.45 -2.10 0.10 -0.25 -1.30 -1.20 -3.20 -2.15 -1.90 -0.95 -3.60 -2.10 -3.75 -2.50 -0.15 -0.40 -1.65 -1.50 -3.35 -2.45 -1.70 -0.95 -3 -1.90 -2.95 -2.15 0.05 -0.25 -1.05 -1.10 -2.45 -1.95 -1.45 -0.80 -2.70 -1.90 -2.90 -2.40 -0.15 -0.45 -1 -1.20 -1.85 -1.65 -0.90 -0.45 -2.60 -1.80 -3.85 -3 -1.25 -1.20 -3.05 -3 -4.05 -3.95 -0.95 -0.95 -2 -1.75 -2.30 -1.75 -0.25 0 -1.80 -1.25 -3.45 -2.75 -1.60 -1.55 -3.80 -3.25 -4.85 -3.80 -1.05 -0.55 -1.75 -1.20 -1.60 -1.45 0.15 -0.25 -1.10 -1.30 -2.75 -2.35 -1.65 -1.05 -3 -2.15 -3 -2.50 0 -0.30 -0.80 -1.05 -1.80 -1.65 -0.95 -0.60 -2.10 -1.65 -2.55 -2.35 -0.45 -0.65 -1.65 -1.65 -2.65 -2.15 -1.05 -0.55 -2.30 -1.50 -2.80 -2.20 -0.55 -0.65 -2.25 -2 -3.85 -2.95 -1.60 -0.95 -2.85 -1.85 -2.75 -2 0.20 -0.35 -1.90 -1.85 -4.20 -3.05 -1.05 -0.55 -1.90 -1.25 -1.90 -1.55 0 -0.35 -1.40 -1.35 -3.10 -2.25 -1.75 -0.85 -3.60 -2.05 -4.10 -2.60 -0.55 -0.55 -2 -1.45 -3.25 -2 -1.25 -0.55 -2.65 -1.45 -3.10 -2 -0.75 -0.95 -6.05 -3.40 -7.35 -3.40 -0.30 0 -1.10 -0.50 -1.65 -1.05 -1.05 -1.05 -10 -3.90 -12.30 -3.95 -0.60 0 -1.15 -0.25 -1.25 -0.60 -0.15 -0.40 -1.05 -0.55 -2.60 -0.45 -3.10 0.20 -2.90 -0.80 0.35 -1.85 1.30 -0.40 2.35 -1.05 2.35 -1.40 0 -0.65 2.65 -1.75 8.20 -3.50 1.60 -0.50 3.05 -1.20 3.15 -1.55 0.25 -0.60 3.60 -1.75 9.05 -3.15 1.15 -0.30 2.10 -0.75 2.10 -0.95 0 -0.95 7.75 -2.50 18 -3.55 4.25 -0.45 6.50 -0.40 11.75 0.20 7.10 0.85 10.25 1.55 10.25 2.35 0 0.30 0.25 0.35 0.50 0.20 0.30 -0.15 0.50 -0.05 0.50 0.25 0 0.30 0.25 0.40 0.50 0.25 0.30 -0.15 0.50 -0.10 0.50 0.20 0 0.25 0.50 0.65 1.15 0.80 3.10 0.90 6.35 2.45 6.35 3.05 0 0.65 0.60 0.90 1.65 0.75 0.20 0 0.35 0.15 0.35 0.35 0 0.20 1.10 0.95 2.50 1.65 1.35 0.65 2.60 1.55 2.75 1.95 0.25 0.75 3.35 3 4.15 3 0.25 0 0.70 0.50 1.05 1.15 0.35 0.65 1.30 1.60 2.15 2.05 0.80 0.50 6.35 5.80 12.30 11.75 6 5.95 11.45 11.10 12.20 11.40 0.75 0.35 1.70 1.20 2.20 1.90 0.45 0.70 1.95 2.10 3.40 3.10 1.40 1 3.10 2.40 3.80 3.05 0.70 0.70 1.95 1.55 2.85 1.90 0.85 0.40 1.70 1.10 1.85 1.60 0.20 0.55 1.55 1.55 3.05 2.35 1.50 0.75 2.75 1.65 2.75 2.05 0 0.35 1.55 1.40 3.45 2.30 1.95 0.90 3.65 2 3.80 2.50 0.15 0.45 1.75 1.45 3.55 2.20 1.80 0.75 3.45 1.75 3.70 2.25 0.30 0.45 2.10 1.50 4.10 2.25 2 0.75 4 1.80 4.40 2.30 0.40 0.50 2.70 1.55 5.10 2.30 2.35 0.80 4.70 1.80 5.15 2.30 0.50 0.45 1.15 0.75 1.55 0.60 0.35 -0.15 0.70 -0.05 0.80 0.20 0.15 0.40 3.95 1.50 9.55 2.70 0.80 0.20 1.25 0.55 1.05 0.85 -0.20 0.35 0.05 0.45 0.75 0.20 0.55 -0.15 1.05 -0.10 1.05 0.15 0 1.10 16.85 3.30 25.25 3.30 5.15 0 13.75 -0.85 20.40 -2 1.05 -0.20 2.05 -0.65 2.20 -1 0.15 -0.40 1.20 -0.95 2.35 -1.20 5.95 -1.55 9.30 -2.70 9.30 -3.25 0 -0.35 1.90 -1.35 4.25 -2.20 2.65 -1.05 4.25 -1.90 4.25 -2.35 0 -0.40 1 -1.15 2.20 -1.65 1.20 -0.55 2.30 -1.30 2.45 -1.75 0.20 -0.50 0.60 -0.80 0.95 -0.70 0.35 0.10 1.65 -0.80 2.90 -2 1.25 -1.20 2.40 -2.30 2.60 -2.50 0.20 -0.20 1 -1.10 1.70 -1.95 0.70 -0.90 1.60 -1.65 2 -1.65 0.40 0 0.70 -0.20 0.70 -0.45 0 -0.25 1.10 -1.60 2.40 -2.95 1.35 -1.40 3.05 -3.70 3.80 -5.20 0.80 -1.45 1.80 -3 2.30 -3.40 0.95 -0.75 3.50 -5.75 3.50 -6.85 0 -0.35 0.40 -0.85 0.90 -1.10 0.50 -0.25 1.50 -2.25 2.30 -4.50 0.80 -2.25 1.60 -3.90 1.85 -3.75 0.25 0.15 0.60 -0.45 0.75 -1.30 0.20 -0.85 0.50 -1.65 0.75 -1.80 0.40 -0.25 -0.70 4.10 -1.55 6.20 -0.30 0.60 -0.70 1.60 -1 2.25 -0.25 0.60 -1.05 3.05 -1.75 5.45 -0.70 2.40 -1.60 4.55 -1.95 4.75 -0.35 0.25 -1.30 2.20 -2.05 4.40 -0.80 2.15 -1.90 4.40 -2.40 4.90 -0.50 0.50 -1.60 2.45 -2.40 4.25 -0.85 1.85 -1.80 3.50 -2.20 3.75 -0.35 0.20 -1.50 1.85 -2.50 3.65 -1 1.80 -1.95 3.15 -2.10 3 -0.15 -0.15 -1.15 1.15 -2.20 2.85 -1.05 1.70 -2.10 3.05 -2.40 3 -0.25 -0.10 -1 0.70 -1.60 1.75 -0.65 1 -2.75 3.35 -4.70 5.25 -1.90 1.85 -4.30 4.15 -5.25 5.05 -0.95 0.90 -2.45 2.05 -3.30 2.45 -0.85 0.45 -1.95 1.40 -2.40 2.10 -0.45 0.70 -2 1.80 -3.45 2.50 -1.45 0.65 -3.35 1.85 -4.20 2.70 -0.90 0.85 -2.25 1.65 -3 1.85 -0.75 0.20 -1.85 0.60 -2.40 0.85 -0.55 0.30 -1.35 0.60 -1.75 0.65 -0.35 0.10 -1.05 0.60 -1.50 1.10 -0.40 0.55 -2.45 1.50 -4.60 2.10 -2.15 0.65 -3.75 1.35 -3.60 1.55 0.15 0.25 -0.15 0.45 -0.65 0.45 -0.55 0 -1.15 0.20 -1.40 0.45 -0.70 0.65 -9.95 2.70 -14.85 3.30 -1.35 0.20 -2.40 0.50 -2.40 0.80 0 0.25 -1.90 0.45 -4.25 0.45 -2.50 0 -4.25 0.20 -4.25 0.50 0 0.30 -3.35 0.50 -9.05 0.50 -5.85 0 -8.90 -0.15 -8.70 -0.50z"/>
 </g>
</svg>